<?xml version="1.0" encoding="utf-8"?>
<!-- Generator: Adobe Illustrator 25.2.1, SVG Export Plug-In . SVG Version: 6.00 Build 0)  -->
<svg version="1.1" id="Layer_1" xmlns="http://www.w3.org/2000/svg" xmlns:xlink="http://www.w3.org/1999/xlink" x="0px" y="0px"
	 viewBox="0 0 550 185" style="enable-background:new 0 0 550 185;" xml:space="preserve">
<style type="text/css">
	.st0{fill-rule:evenodd;clip-rule:evenodd;fill:#ED1C24;}
	.st1{fill-rule:evenodd;clip-rule:evenodd;fill:#FFFFFF;}
	.st2{fill-rule:evenodd;clip-rule:evenodd;fill:#034EA2;}
	.st3{fill-rule:evenodd;clip-rule:evenodd;}
	.st4{fill-rule:evenodd;clip-rule:evenodd;fill:#D3A809;}
	.st5{fill:#D3A809;}
	.st6{fill-rule:evenodd;clip-rule:evenodd;fill:#FFF200;}
</style>
<rect x="58.87" y="43.81" class="st0" width="72.12" height="26.47"/>
<path class="st1" d="M94.66,1.86c49.26,0,89.44,40.18,89.44,89.44c0,49.26-40.18,89.44-89.44,89.44
	c-49.26,0-89.44-40.18-89.44-89.44C5.22,42.04,45.4,1.86,94.66,1.86"/>
<path class="st2" d="M77.55,122.96c-6.17-6.02-10.67-13.09-13.94-21.03c-3.47-8.9-4.41-18.45-4.75-27.95v-0.87h72.15
	c0,0.29,0,0.58,0,0.87c-0.34,9.51-1.28,19.05-4.75,27.95c-3.27,7.94-7.77,15.01-13.94,21.03c-4.99,4.87-11.09,9.01-17.38,12
	C88.64,131.97,82.54,127.83,77.55,122.96"/>
<path class="st3" d="M42.07,27l-0.26,0.23c0.09,0.16,0.28,0.5-0.07,0.8c-0.31,0.27-1.35,0.43-2.1,1.08
	c-1.12,0.98-1.65,2.66-0.41,4.08c1.07,1.23,2.35,1.09,4.07,0.75c2.76-0.52,3.33-0.27,3.95,0.44c0.58,0.67,0.7,1.82-0.29,2.68
	c-1.68,1.46-3.72,0.4-4.47,0.02l-0.29,0.25l2.67,2.31l0.27-0.24c-0.17-0.2-0.23-0.52,0.03-0.75c0.37-0.33,1.35-0.43,2.3-1.25
	c1.78-1.55,1.58-3.48,0.66-4.54c-2.22-2.55-6.6,0.82-8.22-1.05c-0.67-0.77-0.37-1.71,0.25-2.25c1.31-1.14,3.08-0.71,4.18,0.13
	l0.31-0.27L42.07,27z M68.8,23.67c-1.29,0.51-1.6,0.3-2.04-0.73l-3.35-7.74l0.82-0.35c1.67-0.72,2.21-0.63,3.25,0.89l0.36-0.16
	l-1.21-2.53l-8.54,3.7l1.02,2.61l0.36-0.16c-0.38-1.8-0.1-2.26,1.57-2.98l0.82-0.35l3.28,7.57c0.49,1.12,0.59,1.49-0.76,2.15
	l0.13,0.29l4.42-1.92L68.8,23.67z M13.26,111.93l1.19,3.64l0.3-0.1c-0.3-1.12-0.15-1.58,1.53-2.13l4.24-1.38
	c1.27-0.42,1.84-0.43,2.25-0.34c0.89,0.22,1.68,0.95,2.08,2.17c0.89,2.73-1.29,3.44-2.29,3.77l-5.02,1.64
	c-1.11,0.36-1.38,0.24-1.88-0.97l-0.3,0.1l1.45,4.44l0.3-0.1c-0.31-1.22-0.21-1.49,0.95-1.87l4.9-1.59c0.94-0.31,4-1.31,2.73-5.2
	c-1.32-4.06-4.27-3.1-5.53-2.69l-4.1,1.33c-1.65,0.54-1.97,0.35-2.49-0.82L13.26,111.93z M10.89,94.16l0.5,3.85l0.31-0.04
	c-0.06-1.12,0.01-1.6,1.89-1.84l5.47-0.72l0,0.03l-7.05,7.3l0.37,2.8l0.31-0.04c-0.09-0.65-0.04-0.93,0.69-1.7l7.22-0.94
	c1.77-0.23,2.06,0.08,2.3,1.31l0.31-0.04l-0.5-3.85l-0.31,0.04c0.11,1.2-0.21,1.59-1.89,1.81l-6.38,0.83l0-0.03l8.03-8.38
	l-0.04-0.28L13.5,95.4c-1.92,0.25-2.05-0.26-2.3-1.28L10.89,94.16z M74.82,21.82l4.75-1.21l-0.08-0.3
	c-1.19,0.27-1.62,0.21-1.93-1.04l-1.81-7.1c-0.33-1.28,0.05-1.49,1.2-1.84l-0.08-0.31l-4.75,1.21l0.08,0.3
	c1.34-0.27,1.62-0.14,1.92,1.04l1.81,7.1c0.29,1.13,0.17,1.46-1.18,1.83L74.82,21.82z M54.14,31.82l4.08-2.72l-0.17-0.26
	c-1.03,0.65-1.46,0.73-2.17-0.34L51.8,22.4c-0.73-1.1-0.45-1.42,0.52-2.13l-0.17-0.26l-4.08,2.72l0.17,0.26
	c1.18-0.71,1.48-0.67,2.16,0.35l4.07,6.09c0.65,0.98,0.64,1.32-0.51,2.13L54.14,31.82z M22.29,88.38l0.41-4.89l-0.31-0.03
	c-0.14,1.21-0.33,1.59-1.62,1.49l-7.3-0.62c-1.32-0.11-1.4-0.53-1.34-1.74l-0.31-0.03l-0.41,4.89l0.31,0.03
	c0.18-1.36,0.4-1.57,1.61-1.47l7.3,0.62c1.17,0.1,1.43,0.32,1.34,1.72L22.29,88.38z M15.25,65.84l-0.78,3.29l0.31,0.07
	c0.18-0.6,0.36-1.15,1.02-1c0.34,0.08,0.95,0.51,1.04,0.57l5.33,3.76l-6,1.14c-0.91,0.17-1.63,0.31-1.87,0.25
	c-0.51-0.12-0.47-0.44-0.31-1.35l-0.3-0.07l-1.01,4.27l0.3,0.07c0.21-0.75,0.47-0.99,2.09-1.3l9.76-1.86l0.06-0.24l-8.17-5.7
	c-1.11-0.77-1.28-1.05-1.14-1.83L15.25,65.84z M40.47,43.05c-0.43,0.52-0.91,0.66-1.48,0.68l-5.38,0.21
	c0.37-0.77,1.35-2.72-0.42-4.05c-2.03-1.53-3.95,0.44-4.83,1.61l-2.74,3.64l0.25,0.19c0.79-0.85,1.05-0.96,2.03-0.23l5.71,4.3
	c0.99,0.75,1.23,1.01,0.49,2.12l0.25,0.19l2.75-3.65l-0.25-0.19c-0.85,1.02-1.2,0.96-2.08,0.29l-2.6-1.95l0.53-0.76l6.42-0.08
	l1.6-2.12L40.47,43.05z M28.44,43.4c-0.38-0.29-0.39-0.47,0.14-1.17c0.41-0.54,1.75-2.24,3.5-0.92c1.89,1.42,0.42,3.42-0.4,4.53
	L28.44,43.4z M29.43,54l-0.2,0.42c1.19,1.37,1.28,2.33,0.4,4.19c-1.06,2.22-1.07,2.21-1.68,1.92l-3.69-1.76l1.12-2.28
	c0.6-1.23,0.92-1.35,2.2-0.96l0.16-0.34l-3.46-1.65l-0.16,0.34c0.98,0.67,1.27,0.99,0.63,2.31l-1.09,2.29l-3.31-1.58
	c-0.51-0.24-0.42-0.42-0.27-0.73l0.96-2.01c0.79-1.65,1.21-1.93,2.64-1.52l0.18-0.37l-2.15-0.97l-3.77,7.91l0.28,0.14
	c0.52-0.9,0.78-1.22,1.96-0.66l6.62,3.15c1.15,0.55,1.12,0.95,0.72,1.94l0.28,0.13l3.83-8.04L29.43,54z"/>
<path class="st3" d="M161.74,122.01c0.32-0.65,0.57-0.8,1.89-0.84l10.23-0.29l0.12-0.31l-6.22-6.22c-0.55-0.56-1.48-1.49-1.72-2
	c-0.18-0.39-0.1-0.66-0.02-0.92l-0.29-0.12l-1.23,3.03l0.29,0.12c0.13-0.32,0.42-1.04,1.06-0.78c0.17,0.07,0.36,0.2,0.53,0.36
	l1.5,1.43l-1.62,4.01l-1.72,0.03c-0.25,0.01-0.84,0-1.08-0.1c-0.57-0.23-0.38-0.74-0.15-1.31l-0.29-0.12l-1.58,3.9L161.74,122.01z
	 M168.42,115.99l3.49,3.46l-4.93,0.07L168.42,115.99z M161.65,61.48c-0.3-0.66-0.25-0.95,0.56-1.99l6.32-8.05l-0.16-0.29l-8.76,0.8
	c-0.79,0.07-2.09,0.18-2.64,0.04c-0.42-0.11-0.58-0.35-0.72-0.57l-0.28,0.15l1.54,2.88l0.28-0.15c-0.16-0.31-0.53-0.99,0.08-1.32
	c0.16-0.08,0.39-0.15,0.61-0.18l2.06-0.24l2.04,3.81l-1.08,1.34c-0.16,0.2-0.54,0.64-0.77,0.77c-0.54,0.29-0.81-0.18-1.1-0.72
	l-0.28,0.15l1.99,3.71L161.65,61.48z M161.29,52.49l4.9-0.47l-3.1,3.83L161.29,52.49z M140.81,34.91c-0.56-0.47-0.64-0.75-0.35-2.04
	l2.23-9.99l-0.27-0.19l-7.56,4.5c-0.68,0.4-1.81,1.07-2.36,1.18c-0.42,0.08-0.67-0.06-0.89-0.2l-0.19,0.25l2.63,1.93l0.18-0.25
	c-0.28-0.2-0.9-0.66-0.5-1.22c0.11-0.15,0.29-0.3,0.48-0.43l1.75-1.11l3.49,2.56l-0.39,1.68c-0.06,0.25-0.21,0.81-0.36,1.02
	c-0.36,0.49-0.81,0.18-1.3-0.18l-0.18,0.25l3.39,2.49L140.81,34.91z M136.61,26.96l4.22-2.54l-1.14,4.79L136.61,26.96z
	 M179.29,91.55l-0.02-0.34c-0.18-0.02-0.57-0.09-0.59-0.55c-0.02-0.41,0.5-1.33,0.45-2.32c-0.07-1.48-1.06-2.94-2.94-2.85
	c-1.63,0.08-2.31,1.17-3.11,2.72c-1.3,2.49-1.85,2.78-2.79,2.83c-0.89,0.04-1.86-0.57-1.92-1.89c-0.11-2.23,2-3.17,2.76-3.52
	l-0.02-0.38l-3.47,0.66l0.02,0.36c0.27-0.01,0.55,0.14,0.57,0.49c0.02,0.49-0.5,1.33-0.44,2.58c0.11,2.36,1.75,3.4,3.15,3.34
	c3.38-0.16,3.45-5.68,5.92-5.8c1.02-0.05,1.57,0.77,1.61,1.59c0.08,1.73-1.35,2.86-2.69,3.2l0.02,0.41L179.29,91.55z M167.55,100.01
	l-0.74,4.84l0.31,0.05c0.22-1.2,0.44-1.57,1.71-1.37l7.24,1.11c1.31,0.2,1.36,0.62,1.22,1.82l0.31,0.05l0.74-4.85l-0.31-0.05
	c-0.27,1.34-0.5,1.54-1.71,1.36l-7.24-1.11c-1.16-0.18-1.41-0.41-1.23-1.81L167.55,100.01z M157.24,35.71l-3.1-3.47l-0.23,0.21
	c0.63,0.83,0.82,1.19-0.15,2.06l-5.47,4.88c-0.95,0.85-1.31,0.66-2.07-0.08l-0.23,0.21l5.91,6.62l2.67-1.32l-0.27-0.31
	c-2.24,0.74-2.99-0.01-4.64-1.85c-0.91-1.02-1.1-1.25-0.61-1.69l5.82-5.2c0.97-0.87,1.33-0.64,2.13,0.16L157.24,35.71z
	 M177.51,75.51l-1.04-3.46l-0.3,0.09c0.15,0.49,0.3,1.1-0.19,1.25c-0.22,0.07-0.44,0.01-0.65-0.04l-4.25-1.18l2.8-3.39
	c0.16-0.2,0.42-0.42,0.6-0.47c0.44-0.13,0.58,0.26,0.83,0.97l0.3-0.09l-1.33-4.42l-0.3,0.09c0.15,0.73,0.18,0.98-1.71,3.31
	l-2.41,2.98l-2.75,0.83c-1.2,0.36-1.58,0.42-2.08-1.11l-0.3,0.09l1.46,4.83l0.3-0.09c-0.41-1.43-0.21-1.71,0.93-2.06l3.06-0.93
	l4.28,1.26c2,0.59,2.22,1.09,2.46,1.64L177.51,75.51z M129.58,15.56l-3.06-1.19l-6.42,6.45l-0.54-9.15l-3.04-1.18l-0.11,0.29
	c1.11,0.5,1.39,0.75,0.92,1.95l-2.43,6.24c-0.64,1.66-1.06,1.77-2.26,1.39l-0.11,0.29l3.61,1.41l0.11-0.29
	c-1.1-0.48-1.3-0.95-0.68-2.53l2.39-6.14l0.03,0.01l0.57,9.89l0.22,0.08l7.31-7.24l0.03,0.01l-2.68,6.91
	c-0.49,1.26-0.78,1.41-2,1.01l-0.11,0.29l4.31,1.67l0.11-0.29c-0.96-0.44-1.26-0.72-0.8-1.9l2.65-6.83
	c0.47-1.22,0.88-1.16,1.88-0.86L129.58,15.56z"/>
<path class="st3" d="M60.43,156.11l-0.28-0.2c-0.13,0.13-0.42,0.39-0.79,0.13c-0.34-0.24-0.75-1.2-1.56-1.77
	c-1.22-0.85-2.98-0.95-4.05,0.59c-0.93,1.34-0.48,2.54,0.26,4.13c1.18,2.55,1.08,3.16,0.54,3.93c-0.51,0.73-1.59,1.13-2.67,0.37
	c-1.83-1.27-1.29-3.52-1.11-4.33l-0.31-0.22l-1.59,3.16l0.3,0.21c0.15-0.22,0.45-0.35,0.73-0.16c0.41,0.28,0.75,1.21,1.78,1.93
	c1.94,1.35,3.76,0.69,4.57-0.46c1.93-2.78-2.4-6.2-0.99-8.23c0.58-0.84,1.57-0.78,2.25-0.31c1.42,0.99,1.44,2.81,0.9,4.08l0.34,0.24
	L60.43,156.11z M87.2,164.8c1.35,0.08,1.58,0.28,1.57,1.5l-0.06,7.33c-0.01,1.17-0.21,1.45-1.6,1.47l0,0.31l5.51,0.05
	c3.66,0.03,4.01-2.24,4.02-2.87c0.02-1.73-1.3-2.54-2.73-2.85v-0.03c0.74-0.18,2.2-0.53,2.22-2.36c0.02-2.56-2.86-2.81-4.3-2.83
	l-4.62-0.04L87.2,164.8z M90.42,170.06c1.58,0.01,2.11,0.1,2.67,0.27c0.86,0.27,1.66,0.82,1.65,2.18c-0.02,2.21-2.02,2.34-3.11,2.33
	c-0.96-0.01-1.25-0.08-1.25-0.69L90.42,170.06z M90.46,165.62c0-0.25,0.04-0.48,0.37-0.47c0.16,0,0.4-0.01,0.74-0.01
	c1.17,0.01,2.89,0.34,2.87,2.3c-0.02,1.96-1.98,1.98-2.44,1.97l-1.57,0L90.46,165.62z M76.34,173.6c-0.67-0.28-0.83-0.53-0.94-1.84
	l-0.86-10.2l-0.31-0.11l-5.86,6.56c-0.53,0.58-1.41,1.56-1.9,1.83c-0.38,0.2-0.66,0.14-0.91,0.07l-0.1,0.3l3.09,1.05l0.1-0.29
	c-0.33-0.11-1.06-0.36-0.84-1.02c0.06-0.17,0.18-0.37,0.33-0.55l1.34-1.58l4.09,1.4l0.13,1.72c0.02,0.25,0.05,0.84-0.04,1.08
	c-0.2,0.58-0.72,0.42-1.3,0.22l-0.1,0.3l3.98,1.36L76.34,173.6z M69.96,167.27l3.26-3.68l0.35,4.91L69.96,167.27z M129.26,168.35
	l4.09-2.08l-0.14-0.28c-1.19,0.51-1.47,0.3-1.97-0.67l-1.54-3.03l4.46-2.26l1.46,2.87c0.56,1.1,0.67,1.46-0.54,2.14l0.14,0.28
	l4.09-2.08l-0.14-0.28c-1.18,0.51-1.47,0.3-1.97-0.67l-3.32-6.53c-0.53-1.04-0.45-1.33,0.62-1.98l-0.14-0.28l-4.09,2.08l0.14,0.28
	c1.13-0.46,1.41-0.42,1.97,0.67l1.45,2.86l-4.46,2.26l-1.45-2.85c-0.53-1.04-0.45-1.33,0.62-1.98l-0.14-0.28l-4.09,2.08l0.14,0.28
	c1.13-0.46,1.41-0.42,1.97,0.67l3.24,6.37c0.56,1.1,0.66,1.46-0.54,2.14L129.26,168.35z M119.27,171.92
	c-0.72,0.11-0.99-0.02-1.76-1.08l-6.05-8.25l-0.32,0.07l-1.59,8.65c-0.15,0.78-0.39,2.07-0.66,2.55c-0.22,0.37-0.49,0.46-0.74,0.54
	l0.07,0.31l3.19-0.71l-0.07-0.3c-0.34,0.08-1.1,0.24-1.25-0.43c-0.04-0.18-0.04-0.41-0.01-0.64l0.32-2.05l4.22-0.94l1,1.4
	c0.15,0.2,0.48,0.69,0.53,0.95c0.13,0.59-0.39,0.73-0.99,0.86l0.07,0.31l4.11-0.92L119.27,171.92z M110.52,169.84l0.86-4.84
	l2.86,4.01L110.52,169.84z"/>
<path d="M94.93,178.59c-47.84,0-86.76-38.92-86.76-86.76C8.18,44,47.1,5.08,94.93,5.08S181.69,44,181.69,91.83
	C181.69,139.67,142.77,178.59,94.93,178.59z M94.93,5.9C47.55,5.9,9,44.45,9,91.83c0,47.38,38.55,85.93,85.93,85.93
	c47.38,0,85.93-38.55,85.93-85.93C180.86,44.45,142.32,5.9,94.93,5.9z M94.93,162.52c-38.98,0-70.69-31.71-70.69-70.69
	c0-38.98,31.71-70.69,70.69-70.69c38.98,0,70.69,31.71,70.69,70.69C165.62,130.81,133.91,162.52,94.93,162.52z M94.93,21.97
	c-38.52,0-69.86,31.34-69.86,69.86c0,38.52,31.34,69.87,69.86,69.87c38.52,0,69.87-31.34,69.87-69.87
	C164.8,53.31,133.46,21.97,94.93,21.97z"/>
<path d="M94.93,182.43c-49.95,0-90.59-40.64-90.59-90.6c0-49.95,40.64-90.59,90.59-90.59c49.95,0,90.6,40.64,90.6,90.59
	C185.53,141.79,144.89,182.43,94.93,182.43z M94.93,2.89c-49.04,0-88.94,39.9-88.94,88.94c0,49.04,39.9,88.95,88.94,88.95
	c49.04,0,88.94-39.9,88.94-88.95C183.88,42.79,143.98,2.89,94.93,2.89z M94.93,159.44c-37.28,0-67.61-30.33-67.61-67.61
	c0-37.28,30.33-67.61,67.61-67.61s67.61,30.33,67.61,67.61C162.54,129.11,132.21,159.44,94.93,159.44z M94.93,25.88
	c-36.37,0-65.96,29.59-65.96,65.96c0,36.37,29.59,65.96,65.96,65.96c36.37,0,65.96-29.59,65.96-65.96
	C160.89,55.46,131.3,25.88,94.93,25.88z"/>
<path class="st4" d="M117.01,152.22c7.86-2.85,14.97-6.5,18.91-11.64c0,0,2.26-2.51,1.03-4.44c-0.76-1.15-2-3.07-2.23-3.42
	c1.05-0.63,3.68-2.44,5.92-4.49c2.46-2.25,4.45-4.78,3.52-6.15c-1.09-1.38-6.41-9.03-7.56-10.62c0-0.01-0.91-1.01-2.26-0.63
	c-1.52-1.61-4.08-1.23-5.5,0.74l0.76,1.32c0,0-1.2,0.82,0.14,3c1.35,2.18,1.74,2.88,2.18,3.47c0,0-2.76,1.97-6.06,3.15
	c-3.29,1.18-7.88,2.38-10.14,5.82c0,0-0.56,1.15-0.03,2.32c0.53,1.18,3.35,6.31,3.26,6.35c-4.98,2.77-15.8,5.06-24.01,5.47
	c-8.21-0.41-19.03-2.7-24.01-5.47c-0.08-0.04,2.73-5.17,3.26-6.35c0.53-1.17-0.03-2.32-0.03-2.32c-2.26-3.44-6.85-4.64-10.14-5.82
	c-3.29-1.18-6.06-3.15-6.06-3.15c0.44-0.59,0.82-1.29,2.18-3.47c1.35-2.17,0.15-3,0.15-3l0.76-1.32c-1.41-1.96-3.98-2.34-5.5-0.74
	c-1.35-0.38-2.26,0.62-2.26,0.63c-1.15,1.59-6.47,9.24-7.56,10.62c-0.92,1.36,1.07,3.89,3.52,6.15c2.24,2.05,4.87,3.87,5.92,4.49
	c-0.23,0.35-1.47,2.27-2.23,3.42c-1.23,1.94,1.03,4.44,1.03,4.44c3.93,5.14,11.04,8.79,18.91,11.64c7.01,2.54,14.75,3.82,22.07,3.71
	C102.26,156.03,110,154.76,117.01,152.22"/>
<path class="st5" d="M95.76,156.06C95.76,156.06,95.76,156.06,95.76,156.06c-0.27,0-0.55,0-0.82-0.01c-0.27,0-0.54,0.01-0.82,0.01
	c-7.2,0-14.56-1.29-21.29-3.73c-9.33-3.38-15.53-7.2-18.96-11.68c-0.09-0.1-2.3-2.59-1.04-4.58c0.49-0.74,1.18-1.79,1.67-2.55
	c0.22-0.33,0.4-0.61,0.5-0.77c-1.19-0.73-3.72-2.51-5.83-4.44c-1.8-1.65-4.65-4.66-3.54-6.3c0.73-0.92,3.27-4.53,5.31-7.43
	c1-1.42,1.86-2.65,2.25-3.18c0.01-0.01,0.02-0.03,0.03-0.04c0.03-0.03,0.69-0.73,1.71-0.73c0.19,0,0.39,0.02,0.58,0.07
	c0.63-0.64,1.46-0.99,2.36-0.99c1.24,0,2.47,0.67,3.27,1.79l0.04,0.06l-0.75,1.3c0.27,0.25,0.99,1.17-0.2,3.09
	c-0.49,0.79-0.85,1.38-1.13,1.84c-0.46,0.76-0.72,1.18-0.97,1.53c0.52,0.36,3.03,2.03,5.93,3.06c0.4,0.14,0.81,0.28,1.24,0.43
	c3.1,1.06,6.95,2.38,8.96,5.44c0.03,0.06,0.58,1.22,0.04,2.43c-0.26,0.58-1.05,2.07-1.81,3.5c-0.6,1.14-1.28,2.41-1.42,2.74
	c4.78,2.61,15.22,4.97,23.88,5.4c8.65-0.43,19.1-2.8,23.87-5.4c-0.14-0.33-0.81-1.59-1.41-2.72c-0.77-1.45-1.56-2.94-1.82-3.52
	c-0.55-1.21,0.01-2.37,0.03-2.42c2.02-3.07,5.87-4.39,8.97-5.45c0.43-0.15,0.84-0.29,1.24-0.43c2.89-1.03,5.41-2.7,5.93-3.06
	c-0.26-0.36-0.51-0.77-0.97-1.53c-0.28-0.47-0.65-1.06-1.14-1.85c-1.19-1.92-0.47-2.84-0.2-3.09l-0.75-1.3l0.04-0.06
	c0.81-1.12,2.03-1.79,3.27-1.79c0.89,0,1.73,0.35,2.36,0.99c0.19-0.05,0.39-0.07,0.58-0.07c0.9,0,1.59,0.55,1.74,0.77l0.01,0
	c0.38,0.53,1.25,1.76,2.24,3.17c1.94,2.75,4.59,6.53,5.31,7.44c1.11,1.64-1.74,4.66-3.54,6.31c-2.12,1.94-4.64,3.72-5.83,4.44
	c0.1,0.15,0.26,0.4,0.46,0.71c0.49,0.76,1.2,1.85,1.71,2.61c1.27,1.99-0.94,4.48-1.04,4.59c-3.42,4.47-9.63,8.29-18.95,11.67
	C110.32,154.77,102.96,156.06,95.76,156.06z M94.94,155.81c0.27,0,0.55,0.01,0.82,0.01c7.17,0,14.51-1.28,21.21-3.71
	c9.28-3.36,15.45-7.16,18.85-11.6c0.03-0.03,2.19-2.47,1.02-4.31c-0.5-0.76-1.22-1.85-1.71-2.61c-0.25-0.39-0.45-0.69-0.52-0.81
	l-0.07-0.1l0.11-0.06c1.13-0.68,3.73-2.49,5.9-4.48c2.97-2.72,4.24-4.9,3.51-5.99c-0.72-0.91-3.27-4.53-5.32-7.44
	c-1-1.42-1.86-2.64-2.24-3.17l0,0c-0.04-0.04-0.64-0.67-1.55-0.67c-0.19,0-0.39,0.03-0.58,0.08l-0.07,0.02l-0.05-0.05
	c-0.59-0.62-1.38-0.97-2.23-0.97c-1.14,0-2.27,0.61-3.03,1.63l0.78,1.35l-0.09,0.06c-0.04,0.03-1.09,0.79,0.18,2.84
	c0.49,0.79,0.85,1.38,1.14,1.85c0.5,0.83,0.76,1.24,1.03,1.61l0.07,0.1l-0.1,0.07c-0.03,0.02-2.82,1.99-6.08,3.16
	c-0.4,0.14-0.81,0.28-1.24,0.43c-3.06,1.05-6.87,2.35-8.84,5.34l0,0c0,0-0.52,1.1-0.02,2.21c0.26,0.57,1.08,2.13,1.81,3.51
	c1.49,2.82,1.49,2.84,1.46,2.93l-0.02,0.05L119,137.1c-4.75,2.64-15.32,5.04-24.06,5.48c-8.75-0.43-19.32-2.84-24.08-5.48
	l-0.04-0.02l-0.02-0.05c-0.03-0.09-0.04-0.11,1.47-2.95c0.72-1.37,1.55-2.92,1.8-3.49c0.5-1.11-0.02-2.21-0.03-2.22
	c-1.96-2.98-5.77-4.28-8.83-5.33c-0.43-0.15-0.84-0.29-1.24-0.43c-3.27-1.17-6.06-3.14-6.08-3.16l-0.1-0.07l0.07-0.1
	c0.28-0.37,0.53-0.79,1.04-1.61c0.28-0.47,0.65-1.06,1.13-1.85c1.27-2.04,0.23-2.81,0.18-2.84l-0.09-0.06l0.78-1.35
	c-0.76-1.02-1.89-1.63-3.03-1.63c-0.85,0-1.65,0.34-2.23,0.97l-0.05,0.05l-0.07-0.02c-0.19-0.05-0.39-0.08-0.58-0.08
	c-0.91,0-1.51,0.62-1.55,0.67l0,0c-0.39,0.53-1.25,1.76-2.25,3.18c-2.04,2.9-4.59,6.52-5.31,7.44c-0.73,1.08,0.55,3.26,3.51,5.98
	c2.16,1.98,4.77,3.8,5.9,4.48l0.11,0.06l-0.07,0.1c-0.08,0.13-0.3,0.45-0.57,0.87c-0.49,0.75-1.18,1.81-1.67,2.55
	c-1.17,1.84,1,4.27,1.02,4.29c3.41,4.45,9.58,8.25,18.86,11.61C79.87,154.63,87.52,155.91,94.94,155.81z"/>
<path class="st1" d="M60.73,111.62l-2.62,4.23c-1.52-0.09-2.48-1.37-2.76-2.68c0,0-0.5-2.44,1.85-3
	C58.64,109.84,59.94,110.56,60.73,111.62"/>
<path class="st5" d="M58.33,116.28l-0.25-0.01c-1.75-0.1-2.84-1.58-3.14-3c-0.2-0.98-0.01-2.97,2.16-3.49
	c1.46-0.35,2.98,0.27,3.95,1.6l0.17,0.22L58.33,116.28z M57.92,110.51c-0.21,0-0.42,0.03-0.63,0.08c-1.94,0.46-1.56,2.43-1.54,2.51
	c0.21,0.97,0.89,2.12,2.14,2.32l2.33-3.77C59.6,110.92,58.77,110.51,57.92,110.51z"/>
<path class="st1" d="M129.17,111.62l2.62,4.23c1.52-0.09,2.48-1.37,2.76-2.68c0,0,0.5-2.44-1.85-3
	C131.26,109.84,129.96,110.56,129.17,111.62"/>
<path class="st5" d="M131.57,116.28l-2.89-4.68l0.17-0.23c0.98-1.32,2.49-1.94,3.96-1.6c2.17,0.51,2.36,2.5,2.16,3.48
	c-0.31,1.43-1.4,2.9-3.14,3.01L131.57,116.28z M129.68,111.65l2.33,3.77c1.25-0.2,1.94-1.35,2.15-2.32
	c0.04-0.21,0.35-2.06-1.54-2.51C131.55,110.33,130.46,110.74,129.68,111.65z"/>
<path class="st1" d="M60.08,113.27c-0.54,0.87-1.08,1.73-1.62,2.6c0,0,1.21,0.28,1.68-0.69C60.48,114.48,60.62,113.77,60.08,113.27"
	/>
<path class="st5" d="M58.85,116.32L58.85,116.32c-0.27,0-0.46-0.04-0.49-0.05l-0.56-0.13l2.18-3.51l0.37,0.34
	c0.6,0.56,0.65,1.36,0.15,2.39C60.21,115.98,59.62,116.32,58.85,116.32z M60.03,114.14l-0.82,1.32c0.26-0.07,0.45-0.22,0.56-0.45
	C59.95,114.62,60.02,114.35,60.03,114.14z"/>
<path class="st1" d="M129.82,113.27c0.54,0.87,1.08,1.73,1.62,2.6c0,0-1.21,0.28-1.67-0.69
	C129.42,114.48,129.28,113.77,129.82,113.27"/>
<path class="st5" d="M131.05,116.32c-0.77,0-1.36-0.34-1.65-0.96c-0.5-1.03-0.45-1.83,0.15-2.39l0.37-0.34l2.18,3.52l-0.56,0.13
	C131.51,116.27,131.32,116.32,131.05,116.32z M129.87,114.14c0.01,0.21,0.08,0.49,0.26,0.86c0.11,0.23,0.3,0.38,0.56,0.45
	L129.87,114.14z"/>
<path class="st6" d="M53.55,114.21l1.47-2.35c-0.37,2.96,1.94,4.85,4.62,4.29l-1.91,3C56.29,118.28,53.59,115.41,53.55,114.21"/>
<path class="st5" d="M57.86,119.71l-0.34-0.21c-1.42-0.86-4.33-3.84-4.37-5.28l0-0.13l1.54-2.46l0.76,0.27
	c-0.14,1.12,0.14,2.13,0.78,2.85c0.78,0.89,2.04,1.25,3.35,0.99l0.96-0.2L57.86,119.71z M53.98,114.31
	c0.18,0.97,2.21,3.25,3.63,4.26l1.22-1.91c-1.28,0.04-2.44-0.45-3.23-1.35c-0.5-0.57-0.83-1.27-0.95-2.05L53.98,114.31z"/>
<path class="st6" d="M136.35,114.21l-1.47-2.35c0.37,2.96-1.94,4.85-4.62,4.29l1.91,3C133.61,118.28,136.31,115.41,136.35,114.21"/>
<path class="st5" d="M132.14,119.31l-2.13-3.33l0.28,0.06c0.3,0.06,0.61,0.1,0.91,0.1c1.09,0,2.05-0.42,2.72-1.17
	c0.7-0.79,1-1.88,0.85-3.08l0.22-0.08l1.49,2.38l0,0.04c-0.04,1.25-2.74,4.13-4.23,5.04L132.14,119.31z M130.51,116.31l1.7,2.67
	c1.42-0.92,3.93-3.59,4.02-4.74l-1.19-1.91c0.03,1.08-0.3,2.05-0.94,2.78C133.24,116.08,131.92,116.53,130.51,116.31z"/>
<path class="st1" d="M55.32,111.04c-0.64,0.99-1.3,1.95-1.94,2.94C53.14,112.58,53.21,110.89,55.32,111.04"/>
<path class="st5" d="M53.72,114.2l-0.75-0.16c-0.21-1.27-0.08-2.17,0.41-2.75c0.42-0.5,1.06-0.73,1.96-0.66l0.7,0.05l-0.38,0.59
	c-0.32,0.5-0.66,1-0.99,1.5C54.36,113.23,54.04,113.71,53.72,114.2z M54.51,111.51c-0.21,0.06-0.38,0.17-0.5,0.31
	c-0.17,0.21-0.28,0.51-0.31,0.9c0.09-0.14,0.19-0.28,0.28-0.42C54.17,112.04,54.34,111.77,54.51,111.51z"/>
<path class="st1" d="M134.58,111.04c0.64,0.99,1.31,1.95,1.94,2.94C136.76,112.58,136.69,110.89,134.58,111.04"/>
<path class="st5" d="M136.18,114.2c-0.33-0.51-0.66-1.01-1-1.51c-0.32-0.47-0.63-0.95-0.94-1.42l-0.38-0.59l0.7-0.05
	c0.9-0.06,1.54,0.17,1.96,0.66c0.49,0.58,0.63,1.48,0.42,2.75L136.18,114.2z M135.39,111.51c0.16,0.24,0.32,0.48,0.48,0.71
	c0.11,0.16,0.22,0.33,0.33,0.49c-0.03-0.39-0.13-0.69-0.31-0.9C135.76,111.68,135.6,111.57,135.39,111.51z"/>
<path class="st6" d="M53.18,112.05c0,0-0.34,1.24,0.18,2.47c1.22,3.06,4.98,5.62,7.94,7.11c2.68,1.32,5.77,2.07,8.6,3.45
	c2.24,1.26,4.15,2.74,4.23,4.37c0,0,0.18,1.84-2.36,2.12c0,0-1.32,0.08-2.52-1.28c-1.2-1.36-2.63-3.33-3.95-4.57
	c-1.32-1.24-2.17-1.58-3.61-1.3c0,0-0.78,0.08-1.82,1.28l-4.57,6.83c0,0-2.9-1.88-5.48-4.16c-1.47-1.29-2.72-2.69-3.52-3.98
	c0,0-0.96-1.26-0.26-2.22C45.33,123.17,53.18,112.05,53.18,112.05"/>
<path class="st5" d="M55.43,133.1l-0.34-0.22c-0.03-0.02-2.95-1.92-5.53-4.19c-1.54-1.36-2.79-2.77-3.6-4.08
	c-0.02-0.03-1.08-1.44-0.28-2.62h0h0c0.01-0.01,0.02-0.02,0.03-0.04l0.06,0.04c0.43-0.74,1.97-2.94,7.08-10.17l0.73,0.35
	c0,0.01-0.29,1.12,0.16,2.21c1.35,3.4,5.87,5.96,7.75,6.9c1.31,0.65,2.71,1.15,4.18,1.68c1.46,0.53,2.97,1.07,4.42,1.77
	c2.98,1.67,4.39,3.17,4.46,4.72c0,0,0.18,2.23-2.72,2.55c-0.34,0-1.68-0.07-2.87-1.41c-0.43-0.48-0.88-1.04-1.35-1.62
	c-0.85-1.05-1.74-2.14-2.57-2.92c-1.29-1.21-1.94-1.45-3.25-1.19c-0.03,0-0.69,0.11-1.58,1.14L55.43,133.1z M46.38,122.41
	L46.38,122.41c-0.5,0.71,0.25,1.72,0.26,1.73c0.78,1.26,2,2.64,3.46,3.92c2.02,1.78,4.26,3.33,5.1,3.9l4.34-6.48
	c1.14-1.32,2.02-1.45,2.12-1.46c0.31-0.06,0.61-0.09,0.9-0.09c1.2,0,2.05,0.57,3.04,1.5c0.87,0.82,1.77,1.93,2.65,3
	c0.46,0.57,0.91,1.12,1.33,1.6c0.95,1.08,1.97,1.14,2.16,1.14c2.1-0.23,1.99-1.61,1.99-1.67c-0.06-1.24-1.38-2.56-4.02-4.05
	c-1.38-0.67-2.87-1.21-4.31-1.73c-1.43-0.52-2.92-1.05-4.27-1.72c-1.97-0.98-6.69-3.67-8.15-7.32c-0.17-0.41-0.26-0.83-0.3-1.2
	C50.27,116.89,46.76,121.86,46.38,122.41z"/>
<path class="st6" d="M136.73,112.05c0,0,0.34,1.24-0.18,2.47c-1.22,3.06-4.98,5.62-7.94,7.11c-2.68,1.32-5.77,2.07-8.6,3.45
	c-2.23,1.26-4.15,2.74-4.23,4.37c0,0-0.18,1.84,2.36,2.12c0,0,1.32,0.08,2.51-1.28c1.2-1.36,2.63-3.33,3.95-4.57
	c1.32-1.24,2.18-1.58,3.62-1.3c0,0,0.78,0.08,1.82,1.28l4.57,6.83c0,0,2.9-1.88,5.48-4.16c1.47-1.29,2.72-2.69,3.52-3.98
	c0,0,0.96-1.26,0.26-2.22C144.57,123.17,136.73,112.05,136.73,112.05"/>
<path class="st5" d="M134.47,133.1l-4.8-7.16c-0.86-0.99-1.52-1.1-1.52-1.1c-0.32-0.06-0.57-0.09-0.81-0.09
	c-0.82,0-1.47,0.33-2.48,1.28c-0.83,0.78-1.71,1.86-2.56,2.91c-0.47,0.58-0.93,1.15-1.37,1.64c-1.19,1.35-2.52,1.42-2.78,1.42
	c-3-0.32-2.81-2.55-2.81-2.57c0.07-1.53,1.49-3.03,4.44-4.69c1.46-0.71,2.98-1.26,4.44-1.78c1.48-0.53,2.87-1.03,4.18-1.68
	c1.88-0.94,6.39-3.49,7.74-6.89c0.46-1.1,0.17-2.2,0.17-2.21l0.73-0.35c5.06,7.17,6.63,9.39,7.07,10.16l0.06-0.04l-0.01,0.01
	l0.01-0.01c0.86,1.21-0.22,2.65-0.27,2.71c-0.79,1.28-2.03,2.69-3.57,4.04c-2.58,2.27-5.5,4.18-5.53,4.19L134.47,133.1z
	 M127.35,123.92c0.29,0,0.59,0.03,0.94,0.1c0.06,0,0.94,0.13,2.05,1.41l4.37,6.52c0.84-0.56,3.07-2.12,5.1-3.9
	c1.46-1.29,2.68-2.67,3.44-3.89c0.03-0.04,0.78-1.05,0.29-1.75l0,0c-0.34-0.49-3.87-5.51-6.3-8.95c-0.04,0.38-0.12,0.79-0.3,1.21
	c-1.45,3.65-6.18,6.33-8.14,7.32c-1.36,0.67-2.84,1.2-4.27,1.72c-1.44,0.52-2.93,1.05-4.33,1.74c-2.62,1.48-3.94,2.8-4,4.02
	c-0.01,0.16-0.05,1.46,1.99,1.69c0.19,0,1.2-0.06,2.16-1.14c0.42-0.48,0.88-1.04,1.34-1.61c0.87-1.07,1.77-2.17,2.63-2.99
	C125.29,124.5,126.15,123.92,127.35,123.92z"/>
<path class="st1" d="M73.51,131.29l-2.89,5.58c-1.61-0.83-4.6-2.77-6.57-4.92c-1.27-1.39-2.69-2.96-3.55-4.86
	c0,0-0.44-1.02,0.08-1.6c0,0,0.6-0.88,1.88-0.88c0,0,1.06-0.18,2.21,0.94c1.55,1.39,2.53,2.73,3.93,4.46
	C69.92,131.56,71.55,132.59,73.51,131.29"/>
<path class="st5" d="M70.8,137.43l-0.37-0.19c-1.38-0.71-4.55-2.68-6.68-5.01c-1.21-1.33-2.71-2.97-3.62-4.97
	c-0.03-0.06-0.54-1.28,0.15-2.05c0,0,0.7-1.01,2.16-1.02c0.01,0,0.09-0.01,0.19-0.01c0.46,0,1.37,0.14,2.33,1.07
	c1.31,1.18,2.24,2.34,3.32,3.69l0.65,0.81c1.52,1.79,2.88,2.17,4.36,1.19l0.59,0.53L70.8,137.43z M62.63,125.01
	c-0.06,0-0.1,0-0.11,0c-1.11,0-1.59,0.7-1.6,0.71c-0.36,0.41-0.05,1.2-0.04,1.21c0.85,1.87,2.31,3.46,3.48,4.75
	c1.88,2.06,4.62,3.83,6.09,4.64l2.15-4.14c-0.29,0.08-0.57,0.12-0.86,0.12l0,0c-1.16,0-2.29-0.66-3.45-2.01l-0.66-0.82
	c-1.1-1.37-1.96-2.46-3.23-3.6C63.61,125.09,62.9,125.01,62.63,125.01z"/>
<path class="st1" d="M116.39,131.29l2.89,5.58c1.61-0.83,4.6-2.77,6.57-4.92c1.27-1.39,2.69-2.96,3.55-4.86c0,0,0.44-1.02-0.08-1.6
	c0,0-0.6-0.88-1.88-0.88c0,0-1.06-0.18-2.21,0.94c-1.54,1.39-2.53,2.73-3.93,4.46C119.98,131.56,118.36,132.59,116.39,131.29"/>
<path class="st5" d="M119.1,137.43l-3.08-5.95l0.59-0.53c1.48,0.98,2.83,0.6,4.37-1.2l0.64-0.8c1.08-1.35,2.01-2.51,3.33-3.7
	c0.95-0.92,1.86-1.06,2.32-1.06c0.16,0,0.24,0.02,0.24,0.02c0,0,0.01,0,0.01,0c1.4,0,2.11,1.01,2.14,1.05
	c0.65,0.72,0.14,1.94,0.12,2c-0.91,2-2.42,3.65-3.63,4.98c-2.13,2.33-5.3,4.3-6.68,5.01L119.1,137.43z M117.31,132.17l2.15,4.14
	c1.47-0.81,4.21-2.58,6.09-4.64c1.17-1.28,2.63-2.88,3.48-4.75c0.08-0.19,0.26-0.85-0.01-1.16c-0.05-0.07-0.54-0.74-1.57-0.74
	c-0.08-0.01-0.11-0.01-0.17-0.01c-0.27,0-0.98,0.08-1.75,0.83c-1.28,1.16-2.15,2.24-3.25,3.61l-0.65,0.81
	C120.17,131.97,118.77,132.58,117.31,132.17z"/>
<path class="st6" d="M129.82,125.96l6.94,10.4c0,0,0.24,0.28,0.24,1c0,0.72-0.18,1.59-1.16,2.83c-0.98,1.24-2.22,2.64-3.65,3.82
	c-1.44,1.18-3.51,2.5-5.01,3.3c-0.98,0.52-3.53,1.95-6.88,3.34c-1.75,0.73-4.1,1.57-6.12,2.2c-2.43,0.75-5.91,1.54-8.78,1.96
	c-2.87,0.42-4.99,0.74-6.55,0.78c-1.56,0.04-3.91,0.06-3.91,0.06v-0.06v0.06c0,0-2.36-0.02-3.91-0.06c-1.56-0.04-3.67-0.3-6.55-0.72
	c-2.87-0.42-6.36-1.27-8.78-2.02c-2.02-0.62-4.36-1.47-6.12-2.2c-3.35-1.4-5.89-2.82-6.88-3.34c-1.5-0.8-3.57-2.12-5.01-3.3
	c-1.44-1.18-2.67-2.58-3.65-3.82c-0.98-1.24-1.16-2.12-1.16-2.83c0-0.72,0.24-1,0.24-1l6.95-10.4c0,0-0.06,1.04,0.42,1.83
	c0.7,1.4,2.31,3.28,3.34,4.36c0.58,0.6,0.94,0.99,1.73,1.62c0.81,0.65,1.74,1.35,2.78,2.01c1.11,0.71,2.25,1.38,3.32,1.91
	c2.17,1.06,6.07,2.2,7.62,2.6c1.56,0.4,6.08,1.48,8.94,1.78c4.83,0.85,8.64,0.85,13.41,0c2.24-0.29,7.39-1.31,8.94-1.78
	c1.49-0.25,5.37-1.52,7.63-2.6c1.08-0.53,2.23-1.18,3.34-1.89c1.04-0.67,1.95-1.39,2.76-2.03c0.79-0.63,1.15-1.02,1.73-1.62
	c1.04-1.08,2.64-2.96,3.34-4.36C129.88,127.01,129.82,125.96,129.82,125.96"/>
<path class="st5" d="M94.54,156.08L94.54,156.08c-0.74-0.01-2.35-0.03-3.51-0.06c-1.42-0.04-3.33-0.25-6.6-0.73
	c-2.62-0.38-6.09-1.18-8.84-2.03c-2.03-0.63-4.39-1.47-6.15-2.21c-3-1.25-5.39-2.54-6.54-3.16l-0.37-0.2
	c-1.44-0.77-3.57-2.11-5.08-3.35c-1.24-1.02-2.45-2.29-3.71-3.88c-1.1-1.4-1.25-2.39-1.25-3.09c0-0.83,0.28-1.2,0.34-1.27
	l6.92-10.36l0.75,0.25c0,0.01-0.04,0.93,0.36,1.59c0.66,1.32,2.18,3.13,3.29,4.29l0.09,0.1c0.52,0.55,0.87,0.91,1.59,1.49
	c0.64,0.51,1.62,1.27,2.75,1.99c1.29,0.82,2.36,1.44,3.28,1.89c1.99,0.97,5.69,2.09,7.55,2.57c1.9,0.49,6.19,1.48,8.88,1.77
	c2.49,0.43,4.61,0.63,6.7,0.63h0c2.09,0,4.19-0.2,6.6-0.63c2.25-0.29,7.39-1.31,8.89-1.77c1.51-0.26,5.35-1.52,7.57-2.58
	c1.04-0.51,2.18-1.15,3.3-1.86c1.03-0.66,1.93-1.38,2.73-2.01c0.72-0.58,1.06-0.93,1.59-1.48l0.1-0.11c1.1-1.15,2.62-2.96,3.27-4.26
	c0.42-0.69,0.38-1.61,0.38-1.62l0.75-0.25l6.94,10.4c0.03,0.03,0.31,0.4,0.31,1.23c0,0.7-0.14,1.69-1.25,3.09
	c-1.26,1.59-2.47,2.86-3.71,3.88c-1.52,1.24-3.64,2.58-5.08,3.35l-0.36,0.2c-1.15,0.62-3.54,1.91-6.55,3.17
	c-1.77,0.74-4.13,1.59-6.15,2.21c-2.54,0.78-6.01,1.56-8.84,1.97l-0.33,0.05c-2.76,0.41-4.75,0.7-6.27,0.74
	c-1.56,0.04-3.92,0.06-3.92,0.06L94.54,156.08z M59.79,127.14l-6.31,9.45c-0.02,0.03-0.17,0.24-0.17,0.77c0,0.6,0.13,1.38,1.07,2.58
	c1.22,1.55,2.4,2.78,3.59,3.76c1.47,1.21,3.54,2.5,4.94,3.26l0.38,0.2c1.14,0.61,3.5,1.89,6.47,3.13c1.74,0.73,4.07,1.56,6.08,2.18
	c2.71,0.84,6.14,1.63,8.72,2c3.23,0.48,5.11,0.68,6.5,0.72c1.52,0.04,3.8,0.06,3.9,0.06c0.1,0,2.38-0.02,3.9-0.06
	c1.47-0.04,3.44-0.33,6.17-0.73l0.33-0.05c2.75-0.4,6.26-1.19,8.72-1.95c2-0.62,4.33-1.45,6.08-2.18c2.97-1.24,5.34-2.52,6.48-3.13
	l0.37-0.2c1.4-0.75,3.47-2.05,4.94-3.26c1.18-0.97,2.39-2.23,3.59-3.76c0.94-1.2,1.07-1.97,1.07-2.58c0-0.53-0.15-0.74-0.15-0.74
	l-6.34-9.48c-0.07,0.29-0.18,0.59-0.35,0.87c-0.87,1.75-2.98,4-3.4,4.43l-0.1,0.11c-0.52,0.55-0.9,0.94-1.67,1.55
	c-0.81,0.65-1.73,1.38-2.8,2.06c-1.14,0.73-2.31,1.39-3.38,1.91c-2.28,1.09-6.23,2.38-7.74,2.63c-1.51,0.47-6.65,1.49-8.96,1.78
	c-2.44,0.44-4.58,0.64-6.72,0.64c0,0,0,0,0,0c-2.14,0-4.31-0.21-6.81-0.64c-2.71-0.29-7.06-1.29-8.97-1.79
	c-1.36-0.35-5.39-1.5-7.7-2.63c-0.96-0.47-2.03-1.08-3.36-1.93c-1.17-0.74-2.17-1.52-2.82-2.04c-0.77-0.61-1.15-1.01-1.68-1.56
	l-0.09-0.1c-0.42-0.43-2.53-2.69-3.41-4.46C59.97,127.71,59.86,127.42,59.79,127.14z"/>
<path class="st3" d="M62.68,134.23l-0.6,0.1l0.12,0.64l0.58-0.1L62.68,134.23z M63.28,134.77l-0.12-0.54l0.58-0.14l0.12,0.54
	L63.28,134.77z M64.11,135.13l-0.64,0.12l0.12,0.6l0.6-0.14L64.11,135.13z M66.07,144.63c0,0,0.56-1,1.2-2.12
	c0.64-1.12,1.44-2.63,1.92-3.27c0.48-0.64,0.84-1.28,0.84-1.28s-0.76,0.6-1.48,0.64c-0.72,0.04-1.68-0.12-1.68-0.12
	s0.52,0.32,0.52,0.6c0,0.28-1,2-1.44,2.59c-0.44,0.6-0.68,1-1.08,0.84c-0.4-0.16-3.43-2.32-3.63-2.44c-0.2-0.12-0.2-0.32-0.24-0.88
	c0,0,1.56-0.48,2.76,0.4c0,0,0.24-1.48-0.76-1.76c0,0,0.12-1.32-0.12-2.32c0,0-1.72,0.4-2.43,0.84c0,0-0.68-0.44-1.68-0.32
	c0,0,1.08,0.68,0.96,2.55c0,0-2.52,0.48-2.48,2.59c0,0,0.2,2.08,2.79,1.08c0,0-2.31-0.6-1.32-2.08c0,0,0.2-0.56,1.2-0.76l0.36,1.4
	L66.07,144.63z M60.6,138.52l-0.24-1.24l0.48,0.16l1.12-0.88c0,0,0.2,0.8,0.04,1.16c0,0,0.4,0.16,0.52,0.56
	C62.52,138.28,61.04,138.36,60.6,138.52 M70.06,144.51c0,0,1.76,0.28,2.99-0.16c0,0-0.64,0.32-1.16,1.36c0,0-0.2,0.24,0.36,0.56
	c0.56,0.32,3.51,1.48,3.51,1.48s0.76-1.96,4.23-1.36c0,0,0.12,0.16-0.12,0.2c-0.24,0.04-1.08-0.08-1.4,0.68c0,0,1.92-0.24,2.47,1.96
	l3.51,0.84c0,0-0.76-1.4,0.08-1.92c0.84-0.52,1.96-1.08,2.04-1.68c0.08-0.6,0-1.52-0.72-1.67c0,0-0.92-0.28-2.08,1.36
	c0,0-0.32-0.64,0.64-2.16c0,0-1.28-0.32-1.32-1.44c0,0,0.4,0.64,1.8,0.8c0,0,2.44-0.56,3.03,1.4c0,0,0.88,1.88-1.64,3.55
	c0,0-1.68,0.56-0.32,1.76c0,0,2.15,1.48,3.03-0.68c0,0,0.08,1.04,0.08,1.88c0,0,0.24,0.52,0.6,1.04c0,0-0.12-0.04-0.84-0.28
	c-0.72-0.24-4.03-0.84-5.47-1.16c-1.44-0.32-2.24-0.52-2.24-0.52s-3.35,2.04-5.55-1.84c0,0-2.51-0.48-4.51-1.68
	c0,0-0.84,2.08-2.48,1.52c0,0-1.88-0.56-1.92-2.32c0,0,1.24,1.76,2.83,0.68c0,0,0.56-1.12,0.68-1.48
	C70.34,144.87,70.06,144.51,70.06,144.51 M78.72,148.14c0.64,0.2,0.88,0.88,0.56,1.28c-0.32,0.4-0.96,0.24-1.4-0.04
	c-0.44-0.28-0.52-0.72-0.08-1.08C78.16,147.94,78.72,148.14,78.72,148.14 M83.29,151.43l-0.66,0.06l0.2,0.6l0.64-0.08L83.29,151.43z
	 M84.41,152.35l-0.7-0.02l0.2,0.72h0.78L84.41,152.35z M85.67,151.81l-0.74,0.1l0.26,0.62l0.72-0.1L85.67,151.81z M92.7,146.14
	c0.04-0.04,0.08,2.39-0.68,3.75c0,0,6.07,0.04,7.58-0.08c0,0,1.56-0.12,1.84-0.4c0,0,0.2,0.8,0.12,1.44c0,0-4.63,0.8-9.38,0.28
	c0,0,0.2,1,0.08,1.8c0,0-0.2,0.72-0.08,1.16c0,0,0.88-0.56,2.31-0.56l0.04-0.96c5.24,0.23,10.5-0.74,15.61-1.8
	c0,0,1.2,0.84,2.83,0.64c0,0,1.56-0.12,2.23-0.64c0,0,0.28-0.12,0.68-0.08c0,0-0.16,0-0.48-0.88c0,0-0.24-0.72-0.44-1.64
	c0,0,8.11-2.79,9.26-3.83c0,0-0.68-1.8-1.44-2.96c-0.76-1.16-1.72-2.79-1.72-2.79s-0.04,1.52-0.36,1.68
	c-0.32,0.16-0.44,0.36-0.44,0.36s0.68,0.08,1.12,0.92c0.44,0.84,0.88,2.04,0.88,2.04s-2.2,1.52-3.27,1.8c0,0-1.12-2.67-1.12-3.55
	c0,0-0.36-0.28-0.32,0.32c0,0-0.12,1.16-1.48,1.68c0,0,0.48,0,0.8,0.36c0,0,0.44,0.84,0.68,1.64c0,0-1.48,0.72-2.91,0.96
	c0,0-0.24-0.92-0.08-1.76c0,0-3.55,1.76-5.79,1.56c0,0,0.88-1.2,2.79-2.12c0,0,1-0.64,2.24-0.76c0,0-0.44-0.16-0.64-0.44
	c0,0-0.2-0.48-0.2-1.8c0,0-3.07,2.83-5.35,4.51c0,0-2.47,1.8-3.87,3.07c0,0,0.24,0.16,1.12,0.08c0.88-0.08,6.75-1.28,8.3-1.8
	c0,0,0.32,1.96,0.6,2.75c0,0-1.08,0.36-1.75,0.16c-0.68-0.2-0.96-0.48-1.28-1.32c0,0-4.75,1.6-7.47,1.64c0,0-0.32-2.28-0.32-3.39
	c0,0-1.92,1.4-2.75,1.67c0,0-4.87,0.32-6.03,0.08c0,0,0.12-0.84,0.4-1.36c0,0,0.12-0.36,0.72-0.72c0,0-1,0.08-1.6-0.16
	C93.09,146.46,92.66,146.18,92.7,146.14 M120.72,147.98l-0.64-0.56l-0.48,0.84l0.64,0.4L120.72,147.98z M118.56,148.82l-0.64-0.56
	l-0.48,0.84l0.64,0.4L118.56,148.82z M118.68,140.75l-0.56-0.56l-0.52,0.48l0.56,0.48L118.68,140.75z M119.88,139.92l-0.56-0.56
	l-0.52,0.48l0.56,0.48L119.88,139.92z M124.91,137.2c0,0,0,2-0.48,2.39c0,0-0.16,0.2,0.4,0.32c0,0,0.84,1.56,1.36,2.67
	c0,0,1,0.92-1.04,1.24c0,0,1.36,0.64,2.67-0.4c0,0,0.36-0.6-0.44-1.84c0,0,3.47-2.2,4.83-3.71c0,0,0.72-0.6,0.04-1.84
	c-0.68-1.24-1.2-2.44-2.64-4.07c0,0,0.24,1.56-0.36,2.12c0,0,0.28,0.32,0.84,0.92c0,0,0.68,1.16,0.8,1.96c0,0-0.68,0.96-2.27,2
	c-1.6,1.04-2.04,1.16-2.04,1.16s-1.08-1.8-1.28-2.2C125.11,137.52,124.91,137.2,124.91,137.2 M131.26,139.96l-1.08,0.28l0.2,0.84
	l1.04-0.2L131.26,139.96z"/>
<path class="st4" d="M104.45,102.14c0.01-0.03-0.15-0.42-0.17-0.48c-0.06-0.24-0.1-0.49-0.07-0.74c0.04-0.28,0.13-0.55,0.33-0.76
	c0.12-0.12,0.26-0.2,0.4-0.28c0.17-0.1,0.41-0.15,0.6-0.18c0.2-0.03,0.4-0.03,0.6,0c0.1,0.01,0.2,0.03,0.3,0.06
	c1.25,0.31,2.31,1.43,2.91,2.54c1.27,2.35,1.91,4.96,1.93,7.63c0,0.54-0.03,1.09-0.09,1.63c-0.09,0.92-0.09,1.55-0.75,2.26
	c-0.09,0.09-0.18,0.19-0.28,0.27c-0.38,0.34-0.83,0.6-1.33,0.71c-0.38,0.08-0.76,0.06-1.12-0.1c-0.2-0.09-0.37-0.23-0.51-0.4
	c-0.13-0.17-0.22-0.38-0.26-0.59c-0.05-0.23,0-0.4-0.02-0.61c0-0.02-0.03-0.01-0.04-0.02c-0.04-0.02-0.09-0.04-0.13-0.05
	c-0.44-0.17-0.91-0.36-1.36-0.48c-0.02,0-0.04,0.01-0.06,0.01c-0.08,0.03-0.16,0.05-0.23,0.08c-0.34,0.14-0.69,0.35-0.87,0.68
	c-0.31,0.57-0.07,1.05,0.18,1.59c0,0.01,0.02,0.01,0.04,0.02c0.28,0.13,1.18,0.58,1.41,0.57c0.03,0,0.33-0.3,0.39-0.34
	c0.2-0.14,0.42-0.28,0.66-0.35c0.28-0.08,0.56-0.09,0.84,0.02c0.15,0.06,0.29,0.17,0.42,0.27c0.62,0.49,0.79,1.43,0.71,2.17
	c-0.23,2.27-2.27,4.16-3.97,5.46c-1.71,1.31-4.67,2.94-6.89,3.07c-0.21,0.01-0.62-0.14-0.83-0.21c-0.25-0.09-0.5-0.2-0.73-0.34
	c-0.22-0.14-0.43-0.3-0.61-0.49c-0.18-0.19-0.35-0.42-0.45-0.66c-0.09-0.22-0.14-0.48-0.13-0.72c0-0.11,0.02-0.22,0.05-0.32
	c0.06-0.2,0.17-0.39,0.32-0.54c0.16-0.16,0.35-0.28,0.55-0.36c0.08-0.03,0.17-0.04,0.25-0.08c0.01-0.01,0-0.03,0-0.04
	c0-0.05,0-0.09,0-0.14c0-0.47-0.01-0.96-0.06-1.42c0-0.02-0.02-0.03-0.03-0.05c-0.37-0.44-0.8-0.76-1.47-0.67
	c-0.17,0.02-0.56,0.1-0.7,0.2c-0.09,0.07-0.32,0.44-0.33,0.54c-0.01,0.32-0.1,1.29,0,1.5c0.01,0.02,0.4,0.19,0.46,0.23
	c0.1,0.06,0.2,0.13,0.29,0.21c0.2,0.17,0.39,0.38,0.48,0.62c0.05,0.14,0.08,0.28,0.08,0.43c0,0.27-0.1,0.54-0.23,0.78
	c-0.1,0.18-0.22,0.34-0.37,0.48c-0.14,0.14-0.3,0.26-0.48,0.36c-0.17,0.1-0.36,0.19-0.56,0.25c-0.2,0.07-0.4,0.12-0.61,0.16
	c-2.78,0.5-6.1-1.49-8.08-3.13c-1.12-0.92-2.12-1.99-2.95-3.17c-0.29-0.42-0.43-0.55-0.49-1.06c-0.03-0.27-0.05-0.54-0.03-0.81
	c0.01-0.26,0.06-0.52,0.13-0.77c0.07-0.25,0.18-0.49,0.33-0.7c0.15-0.24,0.31-0.41,0.55-0.56c0.1-0.06,0.2-0.11,0.31-0.15
	c0.21-0.07,0.42-0.09,0.64-0.06c0.21,0.03,0.41,0.12,0.59,0.24c0.19,0.13,0.27,0.28,0.43,0.42c0.01,0.01,0.03-0.01,0.04-0.02
	c0.46-0.18,0.99-0.4,1.43-0.64c0.02-0.01,0.02-0.03,0.03-0.05c0.04-0.07,0.08-0.14,0.11-0.22c0.09-0.22,0.17-0.45,0.18-0.69
	c0-0.13,0-0.27-0.03-0.39c-0.09-0.32-0.29-0.56-0.58-0.73c-0.2-0.12-0.43-0.19-0.65-0.27c-0.01-0.01-0.03,0.01-0.04,0.01
	c-0.04,0.01-0.07,0.02-0.11,0.04c-0.12,0.04-0.25,0.09-0.38,0.14c-0.2,0.08-0.4,0.16-0.59,0.25c-0.1,0.05-0.23,0.05-0.31,0.14
	c-0.02,0.02-0.03,0.44-0.04,0.51c-0.04,0.24-0.11,0.49-0.23,0.7c-0.14,0.24-0.34,0.45-0.61,0.56c-0.54,0.21-1.17,0.07-1.66-0.21
	c-2.79-1.63-2.01-7.05-1.34-9.4c0.28-1,0.67-1.96,1.14-2.89c0.09-0.18,0.19-0.36,0.29-0.54c0.35-0.63,0.74-1.45,1.38-1.8
	c0.46-0.26,0.98-0.45,1.5-0.5c0.13-0.01,0.26-0.02,0.39-0.01c0.4,0.02,0.78,0.12,1.11,0.35c0.09,0.07,0.18,0.15,0.26,0.23
	c0.14,0.16,0.25,0.36,0.29,0.57c0.05,0.21,0.04,0.43,0,0.64c-0.05,0.22-0.16,0.36-0.23,0.55c0,0.01,0.02,0.02,0.03,0.03
	c0.03,0.03,0.06,0.07,0.1,0.1c0.33,0.33,0.68,0.69,1.03,0.99c0.01,0.01,0.04,0.01,0.06,0.01c0.08,0.01,0.16,0.02,0.24,0.02
	c1.23,0.02,1.56-0.61,1.54-1.77c0-0.01-0.02-0.02-0.03-0.03c-0.2-0.23-0.83-1-1.04-1.08c-0.03-0.01-0.71,0.2-0.84,0.2
	c-0.26,0.02-0.54,0-0.78-0.12c-0.13-0.06-0.25-0.14-0.35-0.25c-0.39-0.41-0.51-1.07-0.42-1.62c0.05-0.3,0.15-0.59,0.29-0.86
	c1.4-2.75,5.88-3.76,8.57-3.92c0.75-0.05,1.51-0.04,2.26,0.01c1.8,0.13,3.56,0.58,5.21,1.3c0.75,0.33,2,0.88,2.58,1.42
	c0.47,0.43,0.81,1.62,0.8,2.24c0,0.25-0.05,0.54-0.14,0.78c-0.09,0.22-0.24,0.44-0.41,0.61c-0.24,0.22-0.55,0.35-0.87,0.36
	c-0.23,0-0.44-0.04-0.65-0.12c-0.08-0.03-0.15-0.09-0.24-0.12c-0.01,0-0.02,0.02-0.03,0.03c-0.03,0.03-0.07,0.07-0.1,0.1
	c-0.32,0.33-0.67,0.69-0.95,1.06c-0.01,0.01-0.01,0.04-0.01,0.06c-0.01,0.19-0.02,0.38,0.01,0.58c0.17,1.05,0.85,1.19,1.8,1.14
	c0.01,0,0.02-0.02,0.03-0.03C103.63,103,104.38,102.34,104.45,102.14"/>
<path class="st0" d="M104.52,98.5c-0.32,0.26-0.82-0.03-1.18,0.34c-0.67,0.7-1.28,1.42-1.93,2.15c-0.69,0.79-0.13,2.27,0.84,2.59
	c1.24,0.41,1.55-0.14,2.27-0.91c0.38-0.41,1.46-1.36,1.47-1.9c0.01-0.23-0.01-0.45-0.02-0.68c0.93-0.07,2.32,1.2,2.76,1.95
	c1.89,3.28,2.54,7.1,1.84,10.81c-0.08,0.41-0.94,1.23-1.35,1.36c-0.29-0.29-0.21-0.81-0.7-1.01c-0.91-0.36-1.82-0.65-2.75-0.97
	c-0.94-0.32-2.07,0.65-2.09,1.61c-0.04,1.69,1.27,1.72,2.48,2.21c0.94,0.38,1.24,0.62,2.21,0.1c0.35,0.88-0.12,2.42-0.65,3.16
	c-2.19,3.05-5.72,5.23-9.37,6c-0.77,0.16-1.45-0.3-2.05-0.72c0.19-0.37,0.67-0.52,0.66-1.02c0-0.98-0.07-1.9-0.12-2.89
	c-0.09-1.7-3.29-1.89-3.39-0.22c-0.06,0.98-0.06,2.16,0.04,3.15c0.04,0.39,0.45,0.63,0.7,0.9c-0.67,0.72-2.56,0.77-3.45,0.51
	c-3.56-1.06-6.61-3.28-8.69-6.36c-0.38-0.57-0.29-1.51-0.07-2.13c0.37,0.12,0.79,0.4,1.18,0.24c0.91-0.37,1.74-0.79,2.63-1.21
	c0.89-0.42,1.02-1.89,0.38-2.59c-1.14-1.24-2.08-0.34-3.29,0.14c-0.94,0.37-1.29,0.41-1.64,1.45c-0.95-0.42-1.67-2.04-1.77-3.02
	c-0.43-3.69,0.6-7.51,2.7-10.56c0.38-0.54,1.31-0.76,1.93-0.84c0.01,0.28-0.03,0.54,0.02,0.82c0.07,0.45,2.46,2.66,2.87,2.69
	c1.5,0.13,2.34-0.82,2.13-2.33c-0.32-0.56-1.07-1.1-1.49-1.55c-0.68-0.72-0.83-1.03-1.89-1.01c-0.15,0-0.09,0-0.08-0.12
	c0.17-1.11,1.28-2.2,2.24-2.7c5-2.59,11.03-2.31,15.76,0.76C104.11,97,104.5,97.96,104.52,98.5"/>
<path class="st5" d="M98.05,125.76c-0.79,0-1.47-0.48-1.97-0.83l-0.3-0.21l0.17-0.32c0.1-0.2,0.25-0.34,0.38-0.46
	c0.18-0.17,0.24-0.24,0.24-0.36c0-0.72-0.04-1.4-0.08-2.11l-0.04-0.76c-0.03-0.64-0.76-0.99-1.43-0.99c-0.5,0-1.1,0.2-1.13,0.77
	c-0.06,1.03-0.05,2.19,0.04,3.09c0.01,0.13,0.17,0.27,0.34,0.42c0.09,0.08,0.18,0.16,0.25,0.24l0.26,0.28l-0.26,0.28
	c-0.66,0.71-2,0.78-2.55,0.78c-0.5,0-0.97-0.06-1.32-0.17c-3.69-1.1-6.77-3.35-8.92-6.52c-0.46-0.68-0.39-1.74-0.12-2.5l0.13-0.38
	l0.38,0.12c0.11,0.03,0.21,0.08,0.32,0.12c0.17,0.07,0.35,0.15,0.48,0.15c0.78-0.3,1.43-0.61,2.1-0.93l0.6-0.29
	c0.25-0.12,0.44-0.4,0.51-0.76c0.09-0.44-0.02-0.92-0.26-1.18c-0.41-0.44-0.72-0.49-0.91-0.49c-0.36,0-0.75,0.19-1.2,0.41
	c-0.23,0.11-0.47,0.23-0.72,0.33l-0.26,0.1c-0.72,0.28-0.89,0.34-1.14,1.1l-0.14,0.43l-0.41-0.18c-1.14-0.5-1.9-2.27-2.02-3.36
	c-0.43-3.71,0.58-7.66,2.77-10.84c0.46-0.66,1.46-0.92,2.22-1.02l0.46-0.06l0.01,0.46c0,0.1,0,0.2,0,0.3c0,0.15-0.01,0.3,0.01,0.46
	c0.16,0.37,2.11,2.2,2.54,2.35c0.03,0,0.11,0,0.18,0c0.5,0,0.9-0.15,1.15-0.44c0.27-0.31,0.38-0.78,0.31-1.35
	c-0.19-0.3-0.55-0.62-0.86-0.9c-0.2-0.18-0.39-0.35-0.54-0.51l-0.2-0.22c-0.48-0.52-0.6-0.66-1.28-0.66l-0.36,0L85.31,99
	c-0.09-0.11-0.11-0.25-0.06-0.4c0.2-1.31,1.42-2.48,2.46-3.02c2.28-1.18,4.84-1.81,7.41-1.81c3.12,0,6.15,0.89,8.76,2.59
	c0.61,0.39,1.03,1.52,1.05,2.13l0.01,0.21l-0.16,0.13c-0.26,0.21-0.55,0.21-0.77,0.22c-0.21,0-0.3,0.01-0.37,0.09
	c-0.51,0.53-0.99,1.08-1.47,1.63l-0.44,0.5c-0.2,0.23-0.26,0.58-0.15,0.97c0.12,0.45,0.45,0.84,0.81,0.96
	c0.79,0.26,1,0.12,1.62-0.56l0.22-0.24c0.07-0.08,0.17-0.18,0.28-0.29c0.26-0.26,1.07-1.07,1.08-1.34c0-0.17,0-0.34-0.01-0.52
	l-0.02-0.53l0.4-0.03c0,0,0,0,0,0c1.27,0,2.7,1.4,3.14,2.16c1.94,3.36,2.6,7.29,1.89,11.09c-0.12,0.61-1.14,1.53-1.63,1.67
	l-0.24,0.07l-0.18-0.18c-0.18-0.18-0.26-0.39-0.32-0.57c-0.08-0.23-0.12-0.3-0.24-0.35c-0.68-0.27-1.36-0.5-2.05-0.73l-0.69-0.23
	c-0.62-0.21-1.53,0.54-1.55,1.23c-0.03,1.01,0.47,1.22,1.5,1.56c0.24,0.08,0.49,0.16,0.73,0.26l0.3,0.12
	c0.66,0.28,0.88,0.36,1.56-0.01l0.41-0.22l0.17,0.43c0.42,1.08-0.15,2.78-0.7,3.55c-2.19,3.05-5.79,5.36-9.62,6.16
	C98.32,125.75,98.18,125.76,98.05,125.76z M96.92,124.51c0.42,0.27,0.9,0.49,1.36,0.4c3.63-0.77,7.04-2.95,9.12-5.84
	c0.41-0.56,0.73-1.59,0.69-2.33c-0.67,0.25-1.15,0.08-1.78-0.18l-0.29-0.12c-0.23-0.09-0.46-0.17-0.68-0.24
	c-0.99-0.33-2.11-0.69-2.06-2.37c0.03-1.24,1.49-2.38,2.64-1.99l0.68,0.23c0.7,0.24,1.4,0.47,2.09,0.75
	c0.46,0.19,0.61,0.57,0.7,0.83c0,0,0,0,0,0.01c0.33-0.25,0.74-0.69,0.78-0.87c0.68-3.61,0.04-7.34-1.79-10.53
	c-0.33-0.57-1.27-1.43-1.98-1.68c0,0.07,0,0.14,0,0.21c-0.02,0.56-0.61,1.19-1.32,1.9c-0.1,0.1-0.2,0.2-0.26,0.27l-0.21,0.23
	c-0.44,0.49-0.86,0.95-1.62,0.95l0,0c-0.26,0-0.54-0.05-0.87-0.16c-0.63-0.21-1.15-0.79-1.35-1.52c-0.18-0.66-0.06-1.29,0.33-1.73
	l0.44-0.5c0.49-0.57,0.98-1.13,1.5-1.67c0.31-0.32,0.69-0.33,0.95-0.34c0.02,0,0.05,0,0.07,0c-0.11-0.44-0.38-1-0.63-1.17
	c-2.48-1.61-5.35-2.46-8.31-2.46c-2.44,0-4.87,0.59-7.03,1.71c-0.77,0.4-1.63,1.21-1.93,2.05c0.8,0.07,1.12,0.42,1.57,0.91l0.2,0.21
	c0.14,0.15,0.31,0.3,0.49,0.46c0.38,0.35,0.82,0.74,1.06,1.17l0.05,0.15c0.12,0.85-0.05,1.58-0.5,2.09
	c-0.47,0.54-1.18,0.79-2.07,0.71c-0.62-0.05-3.14-2.41-3.24-3.04c-0.02-0.13-0.03-0.26-0.03-0.39c-0.58,0.13-1,0.34-1.17,0.59
	c-2.08,3.02-3.04,6.76-2.63,10.28c0.09,0.8,0.59,1.91,1.17,2.45c0.32-0.66,0.73-0.84,1.43-1.11l0.25-0.1
	c0.23-0.09,0.45-0.2,0.66-0.3c0.52-0.25,1.01-0.49,1.56-0.49c0.55,0,1.05,0.25,1.52,0.76c0.43,0.46,0.6,1.19,0.46,1.9
	c-0.12,0.62-0.48,1.12-0.97,1.35l-0.6,0.29c-0.68,0.32-1.34,0.64-2.05,0.93c-0.34,0.14-0.74,0.05-1.06-0.07
	c-0.09,0.49-0.08,1.03,0.14,1.35c2.03,3.01,4.96,5.15,8.47,6.19c0.27,0.08,0.67,0.13,1.08,0.13c0.64,0,1.21-0.11,1.6-0.29
	c-0.21-0.2-0.42-0.46-0.46-0.82c-0.1-0.96-0.11-2.13-0.04-3.22c0.05-0.92,0.84-1.54,1.96-1.54c1.07,0,2.19,0.61,2.25,1.77l0.04,0.75
	c0.04,0.72,0.08,1.42,0.08,2.15C97.39,124.04,97.13,124.31,96.92,124.51z"/>
<path class="st0" d="M81.55,114.62c0,0,0.21-0.57,0.32-0.71c0.16-0.12,1.18-0.52,1.18-0.52s0.02,1.17-0.63,1.31
	C81.88,114.86,81.55,114.62,81.55,114.62 M82.16,116.28c0.38-0.96,1.29-1.06,1.89-0.22c0,0-0.72,0.34-1.06,0.47
	C82.68,116.55,82.16,116.26,82.16,116.28 M94.36,124.26c0,0-0.45-0.41-0.54-0.56c-0.05-0.19-0.04-1.29-0.04-1.29
	s1.09,0.42,0.97,1.08C94.71,124.05,94.36,124.26,94.36,124.26 M96.13,124.33c-0.74-0.72-0.5-1.59,0.51-1.84c0,0,0.04,0.8,0.04,1.16
	C96.58,123.95,96.11,124.32,96.13,124.33 M108.2,115.91c0,0-0.56,0.27-0.73,0.3c-0.2-0.02-1.22-0.45-1.22-0.45s0.81-0.87,1.38-0.51
	C108.12,115.5,108.2,115.91,108.2,115.91 M108.92,114.28c-0.95,0.42-1.68-0.14-1.53-1.17c0,0,0.76,0.26,1.1,0.4
	C108.73,113.72,108.91,114.3,108.92,114.28 M105.7,100.18c0,0,0.03,0.61-0.01,0.78c-0.09,0.17-0.87,0.95-0.87,0.95
	s-0.49-1.06,0.06-1.45C105.29,100.09,105.7,100.18,105.7,100.18 M104.47,98.9c0.03,1.03-0.76,1.49-1.64,0.96c0,0,0.52-0.6,0.79-0.86
	C103.89,98.86,104.49,98.92,104.47,98.9 M85.71,99.05c0,0,0.61-0.01,0.78,0.03c0.17,0.1,0.92,0.9,0.92,0.9s-1.08,0.46-1.45-0.1
	C85.62,99.45,85.71,99.05,85.71,99.05 M84.4,100.24c1.03,0,1.46,0.8,0.91,1.67c0,0-0.58-0.54-0.84-0.81
	C84.34,100.82,84.42,100.23,84.4,100.24"/>
<path class="st1" d="M95.13,103.7c3.42,0,6.21,2.79,6.21,6.21c0,3.42-2.79,6.21-6.21,6.21c-3.42,0-6.21-2.79-6.21-6.21
	C88.91,106.49,91.7,103.7,95.13,103.7"/>
<path class="st4" d="M95.13,103.61c3.47,0,6.3,2.83,6.3,6.3c0,3.47-2.83,6.3-6.3,6.3c-3.47,0-6.3-2.83-6.3-6.3
	C88.83,106.44,91.66,103.61,95.13,103.61 M95.13,103.82c3.35,0,6.09,2.74,6.09,6.09c0,3.35-2.74,6.09-6.09,6.09
	c-3.36,0-6.09-2.74-6.09-6.09C89.03,106.56,91.77,103.82,95.13,103.82"/>
<path class="st5" d="M95.13,116.63c-3.7,0-6.71-3.01-6.71-6.71c0-3.7,3.01-6.71,6.71-6.71c3.7,0,6.71,3.01,6.71,6.71
	C101.84,113.61,98.83,116.63,95.13,116.63z M95.13,104.23c-3.13,0-5.68,2.55-5.68,5.68c0,3.13,2.55,5.68,5.68,5.68
	c3.13,0,5.68-2.55,5.68-5.68C100.81,106.78,98.26,104.23,95.13,104.23z"/>
<path class="st4" d="M95.13,104.66c2.89,0,5.25,2.36,5.25,5.25c0,2.89-2.36,5.25-5.25,5.25c-2.89,0-5.25-2.36-5.25-5.25
	C89.87,107.02,92.23,104.66,95.13,104.66 M95.13,104.87c2.78,0,5.04,2.27,5.04,5.04c0,2.78-2.27,5.04-5.04,5.04
	c-2.78,0-5.05-2.27-5.05-5.04C90.08,107.14,92.35,104.87,95.13,104.87"/>
<path class="st4" d="M91.53,107.21c0.44,0,0.79,0.36,0.79,0.79c0,0.44-0.36,0.79-0.79,0.79c-0.44,0-0.79-0.36-0.79-0.79
	C90.74,107.57,91.1,107.21,91.53,107.21 M91.53,107.45c0.3,0,0.55,0.25,0.55,0.55c0,0.3-0.25,0.55-0.55,0.55
	c-0.31,0-0.55-0.25-0.55-0.55C90.98,107.7,91.23,107.45,91.53,107.45 M98.72,107.21c0.44,0,0.79,0.36,0.79,0.79
	c0,0.44-0.36,0.79-0.79,0.79c-0.44,0-0.79-0.36-0.79-0.79C97.93,107.57,98.28,107.21,98.72,107.21 M98.72,107.45
	c0.3,0,0.55,0.25,0.55,0.55c0,0.3-0.25,0.55-0.55,0.55c-0.31,0-0.56-0.25-0.56-0.55C98.16,107.7,98.41,107.45,98.72,107.45
	 M91.53,111.03c0.44,0,0.79,0.36,0.79,0.79c0,0.44-0.36,0.79-0.79,0.79c-0.44,0-0.79-0.36-0.79-0.79
	C90.74,111.39,91.1,111.03,91.53,111.03 M91.53,111.27c0.3,0,0.55,0.25,0.55,0.55c0,0.31-0.25,0.55-0.55,0.55
	c-0.31,0-0.55-0.25-0.55-0.55C90.98,111.52,91.23,111.27,91.53,111.27 M98.72,111.03c0.44,0,0.79,0.36,0.79,0.79
	c0,0.44-0.36,0.79-0.79,0.79c-0.44,0-0.79-0.36-0.79-0.79C97.93,111.39,98.28,111.03,98.72,111.03 M98.72,111.27
	c0.3,0,0.55,0.25,0.55,0.55c0,0.31-0.25,0.55-0.55,0.55c-0.31,0-0.56-0.25-0.56-0.55C98.16,111.52,98.41,111.27,98.72,111.27
	 M95.07,109.99c0.44,0,0.79,0.36,0.79,0.79c0,0.44-0.36,0.79-0.79,0.79c-0.44,0-0.79-0.36-0.79-0.79
	C94.27,110.35,94.63,109.99,95.07,109.99 M95.07,110.23c0.31,0,0.55,0.25,0.55,0.55c0,0.3-0.25,0.55-0.55,0.55
	c-0.3,0-0.55-0.25-0.55-0.55C94.51,110.48,94.76,110.23,95.07,110.23 M96.86,108.98c0.44,0,0.79,0.36,0.79,0.79
	c0,0.44-0.35,0.79-0.79,0.79c-0.44,0-0.79-0.36-0.79-0.79C96.06,109.34,96.42,108.98,96.86,108.98 M96.86,109.22
	c0.3,0,0.55,0.25,0.55,0.55c0,0.3-0.25,0.55-0.55,0.55c-0.31,0-0.55-0.25-0.55-0.55C96.3,109.47,96.55,109.22,96.86,109.22
	 M93.4,108.98c0.44,0,0.79,0.36,0.79,0.79c0,0.44-0.36,0.79-0.79,0.79c-0.44,0-0.79-0.36-0.79-0.79
	C92.6,109.34,92.96,108.98,93.4,108.98 M93.4,109.22c0.31,0,0.56,0.25,0.56,0.55c0,0.3-0.25,0.55-0.56,0.55
	c-0.3,0-0.55-0.25-0.55-0.55C92.84,109.47,93.09,109.22,93.4,109.22 M95.07,108.25c0.44,0,0.79,0.36,0.79,0.79
	c0,0.44-0.36,0.79-0.79,0.79c-0.44,0-0.79-0.36-0.79-0.79C94.27,108.61,94.63,108.25,95.07,108.25 M95.07,108.49
	c0.31,0,0.55,0.25,0.55,0.56c0,0.3-0.25,0.55-0.55,0.55c-0.3,0-0.55-0.25-0.55-0.55C94.51,108.74,94.76,108.49,95.07,108.49
	 M95.07,105.2c0.44,0,0.79,0.36,0.79,0.79c0,0.44-0.36,0.79-0.79,0.79c-0.44,0-0.79-0.36-0.79-0.79
	C94.27,105.56,94.63,105.2,95.07,105.2 M95.07,105.44c0.31,0,0.55,0.25,0.55,0.55c0,0.3-0.25,0.55-0.55,0.55
	c-0.3,0-0.55-0.25-0.55-0.55C94.51,105.69,94.76,105.44,95.07,105.44 M95.07,113.04c0.44,0,0.79,0.36,0.79,0.79
	c0,0.44-0.36,0.79-0.79,0.79c-0.44,0-0.79-0.36-0.79-0.79C94.27,113.4,94.63,113.04,95.07,113.04 M95.07,113.28
	c0.31,0,0.55,0.25,0.55,0.56c0,0.3-0.25,0.55-0.55,0.55c-0.3,0-0.55-0.25-0.55-0.55C94.51,113.53,94.76,113.28,95.07,113.28
	 M93.4,111.39c0.44,0,0.79,0.36,0.79,0.79c0,0.44-0.36,0.79-0.79,0.79c-0.44,0-0.79-0.36-0.79-0.79
	C92.6,111.74,92.96,111.39,93.4,111.39 M93.4,111.63c0.31,0,0.56,0.25,0.56,0.55c0,0.31-0.25,0.55-0.56,0.55
	c-0.3,0-0.55-0.25-0.55-0.55C92.84,111.88,93.09,111.63,93.4,111.63 M93.4,106.85c0.44,0,0.79,0.36,0.79,0.79s-0.36,0.79-0.79,0.79
	c-0.44,0-0.79-0.36-0.79-0.79S92.96,106.85,93.4,106.85 M93.4,107.09c0.31,0,0.56,0.25,0.56,0.55c0,0.31-0.25,0.55-0.56,0.55
	c-0.3,0-0.55-0.25-0.55-0.55C92.84,107.34,93.09,107.09,93.4,107.09 M96.86,111.39c0.44,0,0.79,0.36,0.79,0.79
	c0,0.44-0.35,0.79-0.79,0.79c-0.44,0-0.79-0.36-0.79-0.79C96.06,111.74,96.42,111.39,96.86,111.39 M96.86,111.63
	c0.3,0,0.55,0.25,0.55,0.55c0,0.31-0.25,0.55-0.55,0.55c-0.31,0-0.55-0.25-0.55-0.55C96.3,111.88,96.55,111.63,96.86,111.63
	 M96.86,106.85c0.44,0,0.79,0.36,0.79,0.79s-0.35,0.79-0.79,0.79c-0.44,0-0.79-0.36-0.79-0.79S96.42,106.85,96.86,106.85
	 M96.86,107.09c0.3,0,0.55,0.25,0.55,0.55c0,0.31-0.25,0.55-0.55,0.55c-0.31,0-0.55-0.25-0.55-0.55
	C96.3,107.34,96.55,107.09,96.86,107.09"/>
<path class="st0" d="M96.86,107.09c0.3,0,0.55,0.25,0.55,0.55c0,0.3-0.25,0.55-0.55,0.55c-0.31,0-0.55-0.25-0.55-0.55
	C96.3,107.34,96.55,107.09,96.86,107.09 M96.86,111.63c0.3,0,0.55,0.25,0.55,0.56c0,0.3-0.25,0.55-0.55,0.55
	c-0.31,0-0.55-0.25-0.55-0.55C96.3,111.88,96.55,111.63,96.86,111.63 M93.4,107.09c0.31,0,0.55,0.25,0.55,0.55
	c0,0.3-0.25,0.55-0.55,0.55c-0.31,0-0.55-0.25-0.55-0.55C92.84,107.34,93.09,107.09,93.4,107.09 M93.4,111.63
	c0.31,0,0.55,0.25,0.55,0.56c0,0.3-0.25,0.55-0.55,0.55c-0.31,0-0.55-0.25-0.55-0.55C92.84,111.88,93.09,111.63,93.4,111.63
	 M95.07,113.28c0.31,0,0.55,0.25,0.55,0.55c0,0.31-0.25,0.56-0.55,0.56c-0.3,0-0.55-0.25-0.55-0.56
	C94.51,113.53,94.76,113.28,95.07,113.28 M95.07,105.44c0.31,0,0.55,0.25,0.55,0.55c0,0.3-0.25,0.55-0.55,0.55
	c-0.3,0-0.55-0.25-0.55-0.55C94.51,105.69,94.76,105.44,95.07,105.44 M95.07,108.49c0.31,0,0.55,0.25,0.55,0.55
	c0,0.31-0.25,0.55-0.55,0.55c-0.3,0-0.55-0.25-0.55-0.55C94.51,108.74,94.76,108.49,95.07,108.49 M93.4,109.22
	c0.31,0,0.55,0.25,0.55,0.55c0,0.3-0.25,0.55-0.55,0.55c-0.31,0-0.55-0.25-0.55-0.55C92.84,109.47,93.09,109.22,93.4,109.22
	 M96.86,109.22c0.3,0,0.55,0.25,0.55,0.55c0,0.3-0.25,0.55-0.55,0.55c-0.31,0-0.55-0.25-0.55-0.55
	C96.3,109.47,96.55,109.22,96.86,109.22 M95.07,110.23c0.31,0,0.55,0.25,0.55,0.55c0,0.31-0.25,0.55-0.55,0.55
	c-0.3,0-0.55-0.25-0.55-0.55C94.51,110.48,94.76,110.23,95.07,110.23 M98.72,111.27c0.31,0,0.55,0.25,0.55,0.55
	c0,0.31-0.25,0.55-0.55,0.55c-0.3,0-0.55-0.25-0.55-0.55C98.16,111.52,98.41,111.27,98.72,111.27 M91.53,111.27
	c0.3,0,0.55,0.25,0.55,0.55c0,0.31-0.25,0.55-0.55,0.55c-0.31,0-0.55-0.25-0.55-0.55C90.98,111.52,91.23,111.27,91.53,111.27
	 M98.72,107.45c0.31,0,0.55,0.25,0.55,0.55c0,0.31-0.25,0.55-0.55,0.55c-0.3,0-0.55-0.25-0.55-0.55
	C98.16,107.7,98.41,107.45,98.72,107.45 M91.53,107.45c0.3,0,0.55,0.25,0.55,0.55c0,0.31-0.25,0.55-0.55,0.55
	c-0.31,0-0.55-0.25-0.55-0.55C90.98,107.7,91.23,107.45,91.53,107.45"/>
<rect x="58.87" y="43.81" class="st0" width="72.12" height="26.47"/>
<path d="M94.93,138.63l-0.23-0.11c-16.7-7.67-28.36-19.98-34.66-36.61c-2.83-7.47-4.37-16.91-4.7-28.87c-0.18-6.46,0-11.03,0-11.08
	l0-21.69h79.19v21.71c0,0.02,0.18,4.6,0,11.05c-0.34,11.96-1.87,21.4-4.7,28.87c-6.3,16.63-17.96,28.94-34.66,36.61L94.93,138.63z
	 M56.44,41.38v20.61c0,0.07-0.18,4.61,0,11.02c0.33,11.83,1.85,21.16,4.63,28.51c6.16,16.27,17.56,28.35,33.86,35.89
	c16.31-7.55,27.7-19.62,33.86-35.89c2.78-7.35,4.3-16.68,4.63-28.51c0.18-6.42,0-10.96,0-11l0-20.63H56.44z"/>
<path class="st4" d="M82.82,47.52l-4.07,8.18l0.54,1.71l0.81,0.04l5.44,2.07l-2.43,0.99l-0.77,2.31l0.09,0.61l-0.29,0.2l-0.83,3.48
	l0.63,0.88l12.92-4.76l12.97,4.72l0.63-0.88l-0.82-3.53l-0.28-0.16l0.07-0.67l-0.77-2.25l-2.47-0.9l5.48-2.11h0.99l0.45-1.75
	l-4.09-8.18c0,0-1.08,0.05-1.75,0c-0.67-0.04-0.99-0.54-3.42-0.58c-2.43-0.04-5.66,1.42-6.92,2.14c-1.71-0.94-4.53-2.18-6.47-2.09
	c0,0-1.57-0.14-3.82,0.54C83.79,47.56,82.82,47.52,82.82,47.52"/>
<path class="st1" d="M95,49.54c-1.88-0.93-3.78-2.05-5.88-2.18c0,0-2.74-0.2-4.35,0.49l-1.71,0.02l-3.93,7.9l0.4,1.3l2.58,0.07
	c0,0,1.71-0.94,3.95-0.9c2.24,0.04,5.21,0.97,8.89,3.59c0,0,3.9-3.01,7.63-3.48c0,0,2.49-0.6,5.23,0.76l2.6-0.09l0.31-1.32
	l-3.93-7.88c0,0-0.9,0.14-1.77-0.04c-0.88-0.25-2.62-0.65-4.51-0.4C98.68,47.63,96.39,48.64,95,49.54"/>
<path class="st5" d="M94.96,59.99l-0.07-0.05c-3.25-2.32-6.21-3.52-8.82-3.57l-0.15,0c-2.11,0-3.72,0.88-3.74,0.88l-0.03,0.02
	l-0.03,0l-2.67-0.07l-0.44-1.43l0.02-0.04l3.96-7.96l1.75-0.02c1.02-0.43,2.44-0.52,3.46-0.52c0.55,0,0.92,0.03,0.93,0.03
	c1.83,0.11,3.5,0.96,5.13,1.79c0.25,0.13,0.49,0.25,0.74,0.37c1.35-0.86,3.63-1.89,5.51-2.14c1.4-0.18,2.96-0.04,4.56,0.41
	c0.29,0.06,0.61,0.09,0.97,0.09c0.43,0,0.75-0.05,0.75-0.05l0.09-0.01l3.98,7.99l-0.35,1.45l-2.72,0.09l-0.03-0.01
	c-1.46-0.73-2.85-0.88-3.76-0.88c-0.84,0-1.38,0.13-1.39,0.13c-3.66,0.46-7.55,3.43-7.58,3.46L94.96,59.99z M85.92,56.13
	c0.05,0,0.1,0,0.16,0c2.64,0.05,5.62,1.25,8.88,3.56c0.55-0.41,4.18-3.02,7.62-3.45c0.01,0,0.56-0.13,1.43-0.13
	c0.93,0,2.35,0.16,3.84,0.89l2.48-0.09l0.28-1.19l-3.87-7.76c-0.13,0.01-0.38,0.04-0.7,0.04c-0.37,0-0.72-0.03-1.03-0.1
	c-1.58-0.44-3.1-0.58-4.47-0.4c-1.87,0.25-4.15,1.28-5.47,2.14l-0.06,0.04l-0.06-0.03c-0.27-0.13-0.53-0.27-0.8-0.4
	c-1.6-0.81-3.25-1.65-5.03-1.76c-0.01,0-0.38-0.03-0.92-0.03c-1,0-2.4,0.09-3.38,0.51l-0.05,0.01L83.14,48l-3.87,7.79l0.36,1.17
	l2.46,0.07C82.33,56.9,83.87,56.13,85.92,56.13z"/>
<path class="st4" d="M94.98,49.76c-3.52-2.08-6.08-2.46-9.55-1.83c-0.61,0.23-1.14,0.21-1.76,0.23l-4,7.49
	c0.88,0.09,1.42,0.22,2.31-0.06c4.45-1.42,8.87-0.16,12.49,2.7l0.62,0.49c3.52-3.47,8.75-4.61,13.41-3.09l1.86-0.06l-3.99-7.41
	c-1.49-0.28-3.01-0.58-4.53-0.6C99.3,47.58,97.15,48.49,94.98,49.76"/>
<path class="st1" d="M83.91,48.55l-3.64,6.69c0,0,0.61,0.14,0.97,0.14c0.49-0.04,1.79-0.76,4.31-0.79c2.51-0.02,5.79,0.65,9.51,3.66
	c0,0,2.91-2.92,7.58-3.52c1.82-0.24,3.91-0.12,6.2,0.66c0.31-0.04,0.63-0.08,0.95-0.12c-1.24-2.2-2.44-4.49-3.68-6.69
	c-4.4-0.84-6.68-1.08-11.11,1.71c0,0-4.11-3.45-10.03-1.82C84.36,48.53,83.91,48.55,83.91,48.55"/>
<path class="st1" d="M82.71,57.3c1.05-0.33,1.96-0.67,3.07-0.7c1.76-0.06,4.73,0.7,9.17,3.8c3.3-2.31,6.72-4.27,10.73-3.59
	c0,0,0.85,0.32,1.44,0.43l-12.23,4.82C90.82,60.47,86.76,58.89,82.71,57.3"/>
<path class="st4" d="M84.03,57.28c0,0,1.07-0.08,1.57-0.11c0.5-0.03,2.91,0.06,4.46,0.8c1.55,0.74,3.98,2.16,4.9,2.82
	c0,0,3.55-2.32,4.94-2.82c1.39-0.5,2.89-1.1,6.05-0.69c-3.63,1.59-7.37,2.85-11.01,4.42L84.03,57.28z"/>
<path class="st6" d="M85.56,57.53c0,0,1.87-0.14,4.06,0.74c2.19,0.88,3.76,2,5.35,2.88c0,0,4.06-2.56,5.66-3.03
	c1.6-0.47,2.78-0.64,3.8-0.64l-9.47,3.76L85.56,57.53z"/>
<polygon class="st1" points="94.87,62.44 107.59,57.47 108.55,57.44 94.86,62.78 81.15,57.44 82.03,57.46 "/>
<path class="st5" d="M94.86,62.9l-0.04-0.02l-13.71-5.34l0.05-0.23l0.92,0.03l12.8,4.96l12.71-4.96l0.96-0.03l0.05,0.23L94.86,62.9z
	 M81.82,57.57l13.04,5.08l13-5.07l-0.24,0.01l-12.74,4.98l-0.04-0.02l-12.82-4.97L81.82,57.57z"/>
<polygon class="st1" points="83.28,60.8 86.01,59.71 93.41,62.53 81.73,66.76 82.4,63.8 85.86,62.04 82.76,62.5 "/>
<path class="st5" d="M81.56,66.95l0.73-3.23l2.86-1.46l-2.56,0.38l0.58-1.93l2.83-1.13l7.44,2.84l0,0.22L81.56,66.95z M82.5,63.88
	l-0.61,2.7l11.17-4.05l-7.05-2.69l-2.64,1.05l-0.44,1.46l2.91-0.44l0.07,0.22L82.5,63.88z"/>
<polygon class="st1" points="84.03,62.58 82.64,62.81 82.7,63.34 "/>
<polygon class="st1" points="82.09,67.57 81.77,67.12 93.77,62.71 94.38,62.95 "/>
<path class="st5" d="M82.05,67.71l-0.46-0.65l12.19-4.48l0.65,0.26l0,0.22L82.05,67.71z M81.96,67.17l0.18,0.25l11.91-4.47
	l-0.28-0.11L81.96,67.17z"/>
<polygon class="st1" points="107.74,67.55 95.39,62.95 96.07,62.73 108.06,67.04 "/>
<path class="st5" d="M107.79,67.7l-0.09-0.03l-12.35-4.6l0-0.22l0.73-0.24l0.04,0.01l12.12,4.36L107.79,67.7z M95.75,62.96
	l11.94,4.45l0.19-0.31l-11.81-4.25L95.75,62.96z"/>
<polygon class="st1" points="106.49,60.77 103.77,59.71 96.43,62.55 108.1,66.75 107.4,63.79 103.89,62.01 107.03,62.5 "/>
<path class="st5" d="M108.27,66.93l-0.21-0.07l-11.68-4.2l0-0.22l7.39-2.85l2.81,1.1l0.62,1.97l-2.59-0.41l2.89,1.46L108.27,66.93z
	 M96.77,62.55l11.17,4.02l-0.64-2.7l-3.47-1.75l0.07-0.22l2.96,0.47l-0.47-1.49l-2.62-1.02L96.77,62.55z"/>
<polygon class="st1" points="105.64,62.53 107.1,62.78 107.07,63.29 "/>
<path class="st4" d="M95.71,56.11c0.18-0.05,0.39-0.19,0.56-0.29c3.36-1.82,7.31-3.43,11.14-2.13c0.17,0.06,0.37,0.12,0.51,0.18
	c0.15,0.15,0.15,0.31-0.12,0.26c-3.73-1.56-7.86,0.02-11.19,1.82c-0.11,0.06-0.44,0.29-0.71,0.38
	C95.62,56.43,95.31,56.45,95.71,56.11 M95.61,54.62c3.28-1.68,7.48-3.42,11.2-2.41c0.07,0.02,0.52,0.14,0.55,0.13
	c0.12,0.21,0.06,0.28-0.12,0.28c-0.14-0.03-0.34-0.1-0.51-0.15c-3.44-0.93-7.56,0.61-10.61,2.19c-0.1,0.05-0.28,0.18-0.44,0.23
	C95.31,55.02,95.38,54.74,95.61,54.62 M95.67,52.7c0.02-0.01,0.04-0.02,0.06-0.03c3.09-1.44,6.87-2.78,10.29-1.87
	c0.65,0.15,0.79,0.46,0.31,0.42c-0.12-0.05-0.26-0.12-0.38-0.15c-3.22-0.86-6.94,0.36-9.86,1.74C95.49,53.08,95.42,52.88,95.67,52.7
	 M95.76,51.01c1.85-1.58,4.98-2.13,7.31-2.05c0.25,0.01,1.89,0.18,2.61,0.3c0.25,0.04,0.68,0.25,0.19,0.32
	c-0.19-0.02-0.45-0.09-0.59-0.11c-2.98-0.53-6.6-0.25-9.14,1.59c-0.05,0.04-0.1,0.09-0.15,0.14C95.68,51.41,95.53,51.36,95.76,51.01
	 M81.92,53.87c0.18-0.06,0.36-0.14,0.54-0.2c3.76-1.23,7.66,0.37,10.98,2.12c0.17,0.09,0.34,0.2,0.52,0.28
	c0.43,0.19,0.12,0.38-0.12,0.25c-3.32-1.85-7.46-3.63-11.28-2.38c-0.1,0.03-0.31,0.14-0.49,0.19C81.79,54.2,81.59,54.03,81.92,53.87
	 M82.53,52.39c3.89-1.22,7.88,0.2,11.3,2.11c0.08,0.04,0.45,0.22,0.45,0.27c0.04,0.26-0.15,0.27-0.3,0.17
	c-0.09-0.06-0.19-0.15-0.28-0.2c-3.09-1.72-7.19-3.29-10.74-2.2c-0.15,0.05-0.31,0.09-0.41,0.09
	C82.37,52.62,82.36,52.45,82.53,52.39 M83.38,50.95c3.19-1.06,7.26,0.07,10.12,1.52c0.19,0.1,0.38,0.21,0.57,0.3
	c0.27,0.12,0.22,0.36-0.08,0.23c-0.51-0.18-1.5-0.71-1.75-0.81c-2.55-1.1-5.97-1.85-8.72-0.99C83.16,51.31,83.01,51.1,83.38,50.95
	 M83.8,49.32c3.18-0.83,6.98-0.43,9.75,1.37c0.13,0.08,0.35,0.17,0.47,0.27c0.13,0.19,0.04,0.42-0.21,0.24
	c-2.71-2-6.64-2.43-9.87-1.63C83.6,49.66,83.45,49.41,83.8,49.32"/>
<path class="st6" d="M62.95,100.12c-0.76-2.88-1.52-5.75-2.27-8.63l34.38-14.5l34.28,14.53l-2.38,8.52L95.05,86.52
	C84.35,91.05,73.65,95.59,62.95,100.12"/>
<path class="st4" d="M60.4,91.18l34.65-14.62c11.48,4.87,22.97,9.73,34.45,14.6c-0.85,3.22-1.7,6.09-2.54,9.31L95.05,86.94
	c-10.7,4.53-21.39,9.07-32.09,13.6C62.1,97.31,61.25,94.42,60.4,91.18 M63.09,99.82c-0.95-2.73-1.67-5.47-2.16-8.2l34.11-14.39
	c11.34,4.81,22.68,9.61,34.02,14.42c-0.67,2.78-1.43,5.47-2.26,8.09L95.05,86.28C84.39,90.79,73.74,95.31,63.09,99.82"/>
<path class="st5" d="M94.93,135.57l-0.24-0.11c-6.54-3.11-12.6-7.29-17.53-12.1c-5.99-5.85-10.59-12.79-14.06-21.22
	c-3.67-9.42-4.48-19.51-4.8-28.14v-1.44h73.24l0,0.55l0,0.39l0,0.47c-0.31,8.66-1.12,18.75-4.79,28.16
	c-3.48,8.44-8.08,15.38-14.07,21.23c-4.93,4.81-10.99,9-17.53,12.1L94.93,135.57z M59.41,73.66v0.32c0.31,8.52,1.11,18.5,4.72,27.75
	c3.41,8.28,7.93,15.1,13.81,20.84c4.78,4.67,10.66,8.74,17,11.78c6.34-3.04,12.21-7.11,17-11.78c5.88-5.74,10.4-12.56,13.81-20.85
	c3.6-9.25,4.41-19.22,4.71-27.76l0-0.3H59.41z"/>
<path class="st4" d="M58.43,43.37h73v27.35h-73V43.37z M59.09,44.03h71.68v26.03H59.09V44.03z"/>
<path d="M343.36,26.08V135.1h-9.5v-5.44c0-30.78,0-61.55,0-92.33c0-0.78,0-1.56,0-2.34c-0.04-12.14-1.69-14.21-13.46-16.85
	c-3.73-0.84-3.73-0.84-4.68-3.57h39.72c11.65,33.86,23.36,67.91,35.08,101.96c0.3,0.01,0.6,0.02,0.9,0.03
	c11.68-33.96,23.36-67.92,35.11-102.08h21.71v120.49h-15.28V25.92c-0.37-0.05-0.74-0.11-1.11-0.16
	c-12.29,36.49-24.59,72.98-36.88,109.47h-14.09c-12.18-36.31-24.41-72.79-36.64-109.27C343.95,26,343.65,26.04,343.36,26.08"/>
<path d="M294.73,14.41h10.42v5.23c0,26.38,0.08,52.77-0.07,79.16c-0.03,4.95-0.61,9.97-1.61,14.82
	c-2.47,11.93-10.19,18.95-21.84,21.75c-11.25,2.7-22.58,2.7-33.83,0.01c-13.5-3.24-21.3-11.8-23.2-25.49
	c-0.67-4.77-1.03-9.63-1.06-14.44c-0.12-19.2-0.05-38.41-0.05-57.61c0-1.09,0.02-2.19,0-3.28c-0.21-8.67-3-11.65-11.71-12.58
	c-1.55-0.16-3.14-0.2-4.61-0.64c-0.77-0.23-1.3-1.23-1.94-1.88c0.11-0.42,0.22-0.85,0.33-1.27c11.01-1.37,22.01-2.73,33.72-4.18
	c0,2.48,0,4.3,0,6.13c0,25.45-0.18,50.9,0.13,76.34c0.07,6.14,1.04,12.47,2.85,18.33c3,9.74,10.64,14.93,20.77,15.11
	c3.87,0.07,7.84-0.04,11.62-0.8c11.17-2.26,17.43-8.95,19.11-20.19c0.62-4.15,0.93-8.38,0.95-12.58c0.08-25.45,0.04-50.9,0.04-76.35
	V14.41z"/>
<path d="M469.04,133.7v-12.2c1.53,0.58,2.77,1.03,4,1.52c9.79,3.88,19.79,6.54,30.49,5.9c10.35-0.63,17.75-5.62,20.52-14.17
	c3.2-9.87,0.82-19.58-7.55-25.49c-7.34-5.18-15.53-9.16-23.27-13.79c-4.67-2.79-9.49-5.47-13.75-8.82
	c-10.5-8.25-14.03-19.31-10.93-32.12c2.94-12.14,12-18.12,23.48-20.88c12.23-2.94,24.48-1.58,36.7,0.35
	c1.38,0.22,2.75,0.55,4.5,0.91v12.27c-1.62-0.56-3.34-1.09-5-1.75c-8.04-3.16-16.3-5.4-25-5.21c-2.92,0.06-5.93,0.59-8.7,1.5
	c-12.97,4.28-17,19.22-7.28,28.82c4.78,4.72,10.98,8.07,16.79,11.64c7.82,4.8,16.3,8.62,23.76,13.9
	c18.2,12.88,16.03,36.37,6.47,47.66c-4.48,5.3-10.25,8.59-16.76,10.63C501.42,139.4,485.46,137.09,469.04,133.7"/>
<path d="M214.11,152.39h2.69v15.34c0,3.21,1.01,4.71,3.7,4.71c2.84,0,3.73-1.65,3.73-4.71v-15.34h2.69v15.34
	c0,4.19-2.14,6.91-6.42,6.91c-4.4,0-6.39-2.38-6.39-6.91V152.39z"/>
<polygon points="230.21,152.39 233.69,152.39 240.91,170.6 240.97,170.6 240.97,152.39 243.66,152.39 243.66,174.21 239.96,174.21 
	232.96,156.54 232.9,156.54 232.9,174.21 230.21,174.21 "/>
<rect x="247.2" y="152.38" width="2.69" height="21.82"/>
<polygon points="251.6,152.39 254.41,152.39 258.69,171.12 258.75,171.12 263.03,152.39 265.84,152.39 260.34,174.21 256.92,174.21 
	"/>
<polygon points="267.55,152.39 278.83,152.39 278.83,154.77 270.24,154.77 270.24,161.61 278.34,161.61 278.34,164 270.24,164 
	270.24,171.82 279.2,171.82 279.2,174.21 267.55,174.21 "/>
<path d="M281.7,152.39h7.06c3.45,0,5.59,2.02,5.59,5.47c0,2.32-0.83,4.92-3.36,5.5v0.06c1.93,0.21,2.96,1.77,3.09,3.64l0.18,3.73
	c0.09,2.41,0.52,3.02,1.16,3.42h-3.24c-0.49-0.49-0.64-2.08-0.73-3.15l-0.18-3.39c-0.24-3-1.86-3.18-3.24-3.18h-3.64v9.72h-2.69
	V152.39z M284.39,162.29h2.66c1.59,0,4.49,0.03,4.49-4.22c0-2.17-1.41-3.48-3.94-3.48h-3.21V162.29z"/>
<path d="M306.82,158.04c0-2.29-0.83-3.88-3.39-3.88c-2.29,0-3.61,1.22-3.61,3.55c0,6.14,10.3,2.47,10.3,10.45
	c0,5.04-3.7,6.48-6.79,6.48c-5.1,0-6.6-2.63-6.6-7.27h2.69c0,2.44,0.18,5.07,4.1,5.07c2.14,0,3.79-1.53,3.79-3.85
	c0-6.17-10.3-2.6-10.3-10.61c0-2.02,0.86-6.02,6.39-6.02c4.19,0,6.02,2.05,6.11,6.08H306.82z"/>
<rect x="312.84" y="152.38" width="2.69" height="21.82"/>
<polygon points="325.71,174.21 323.02,174.21 323.02,154.77 317.54,154.77 317.54,152.39 331.21,152.39 331.21,154.77 
	325.71,154.77 "/>
<rect x="333.22" y="152.38" width="2.69" height="21.82"/>
<polygon points="346.85,152.39 351.37,152.39 355.74,169.68 355.81,169.68 360.18,152.39 364.7,152.39 364.7,174.21 362.01,174.21 
	362.01,155.14 361.95,155.14 357.12,174.21 354.43,174.21 349.6,155.14 349.54,155.14 349.54,174.21 346.85,174.21 "/>
<path d="M372.58,152.39h3.61l5.87,21.82h-2.81l-1.56-5.99h-6.97l-1.62,5.99h-2.81L372.58,152.39z M371.27,166.02h5.87l-2.78-10.54
	h-0.06L371.27,166.02z"/>
<polygon points="383.58,152.39 386.27,152.39 386.27,171.82 395.13,171.82 395.13,174.21 383.58,174.21 "/>
<path d="M401.43,152.39h3.61l5.87,21.82h-2.81l-1.56-5.99h-6.97l-1.62,5.99h-2.81L401.43,152.39z M400.11,166.02h5.87l-2.78-10.54
	h-0.06L400.11,166.02z"/>
<polygon points="408.91,152.39 411.88,152.39 416.04,162.59 420.34,152.39 423.16,152.39 417.38,165.65 417.38,174.21 
	414.69,174.21 414.69,165.65 "/>
<path d="M434.13,158.04c0-2.29-0.83-3.88-3.39-3.88c-2.29,0-3.61,1.22-3.61,3.55c0,6.14,10.3,2.47,10.3,10.45
	c0,5.04-3.7,6.48-6.79,6.48c-5.1,0-6.6-2.63-6.6-7.27h2.69c0,2.44,0.18,5.07,4.1,5.07c2.14,0,3.79-1.53,3.79-3.85
	c0-6.17-10.3-2.6-10.3-10.61c0-2.02,0.86-6.02,6.39-6.02c4.19,0,6.02,2.05,6.11,6.08H434.13z"/>
<rect x="440.15" y="152.38" width="2.69" height="21.82"/>
<path d="M450.66,152.39h3.61l5.87,21.82h-2.81l-1.56-5.99h-6.97l-1.62,5.99h-2.81L450.66,152.39z M449.34,166.02h5.87l-2.78-10.54
	h-0.06L449.34,166.02z"/>
<path d="M478.25,158.04c0-2.29-0.83-3.88-3.39-3.88c-2.29,0-3.61,1.22-3.61,3.55c0,6.14,10.3,2.47,10.3,10.45
	c0,5.04-3.7,6.48-6.79,6.48c-5.1,0-6.6-2.63-6.6-7.27h2.69c0,2.44,0.18,5.07,4.1,5.07c2.14,0,3.79-1.53,3.79-3.85
	c0-6.17-10.3-2.6-10.3-10.61c0-2.02,0.86-6.02,6.39-6.02c4.19,0,6.02,2.05,6.11,6.08H478.25z"/>
<path d="M488.55,152.39h3.61l5.87,21.82h-2.81l-1.56-5.99h-6.97l-1.62,5.99h-2.81L488.55,152.39z M487.24,166.02h5.87l-2.78-10.54
	h-0.06L487.24,166.02z"/>
<path d="M499.55,152.39h6.69c2.84,0,5.59,1.34,5.59,5.59c0,1.99-1.19,3.97-3.18,4.55v0.06c2.69,0.64,3.88,2.69,3.88,5.38
	c0,4.43-2.51,6.24-7.06,6.24h-5.93V152.39z M502.24,161.8h3.09c1.13,0,3.7-0.28,3.7-3.64c0-2.29-1.1-3.58-3.76-3.58h-3.03V161.8z
	 M502.24,172.01h3.67c2.84,0,3.82-1.93,3.82-4.04c0-3-1.93-4.16-4.28-4.16h-3.21V172.01z"/>
<path d="M519.69,152.39h3.61l5.87,21.82h-2.81l-1.56-5.99h-6.97l-1.62,5.99h-2.81L519.69,152.39z M518.38,166.02h5.87l-2.78-10.54
	h-0.06L518.38,166.02z"/>
<polygon points="543.56,174.21 540.87,174.21 540.87,163.69 533.38,163.69 533.38,174.21 530.69,174.21 530.69,152.39 
	533.38,152.39 533.38,161.31 540.87,161.31 540.87,152.39 543.56,152.39 "/>
</svg>
